<svg xmlns="http://www.w3.org/2000/svg" viewBox="0 0 601.26 183.76"><defs><style>.cls-1{isolation:isolate;}.cls-2{fill:#003648;}.cls-3{mix-blend-mode:multiply;}</style></defs><g class="cls-1"><g id="Livello_1" data-name="Livello 1"><path class="cls-2" d="M3.88,59.25l2.19,1.19.65-.7-2.19-1.6c-1.33-1-2.65-1.93-4-2.87a1.1,1.1,0,0,1-.54-1c0-1.82,0-3.64,0-5.46,0-2.33,0-4.65.07-7,0-.15,0-.3,0-.52H4c0-.89,0-1.72,0-2.55V13.45H45.49l0,0,0,0c0,.16,0,.31,0,.47q0,14.91,0,29.82s0,.08-.09.18h-3c-.17.53-.2,15.12,0,15.93h5.27V71.24a4.48,4.48,0,0,0,1.49.1c.46,0,.93,0,1.4,0h1.47c0,.66.12,1.25.14,1.84,0,.88.06,1.77.08,2.65,0,1.49,0,3,.07,4.46,0,1.26.08,2.52.17,3.78a1.2,1.2,0,0,1-.62,1.19c-1.26.83-2.49,1.7-3.71,2.59a1.53,1.53,0,0,1-1,.29c-1.44,0-2.89,0-4.33,0-.13,0-.26,0-.43,0v19.66l7.51.4V109q0,9.95,0,19.9a1.21,1.21,0,0,1-.55,1.11c-.93.68-1.83,1.4-2.75,2.1l-.33.29c0,.07,0,.13,0,.15a2.34,2.34,0,0,1,.66,2.06c0,1.07,0,2.13,0,3.2,0,3.9-.05,7.81-.07,11.71,0,3.68-.05,7.36-.08,11,0,1.93-.06,3.86-.08,5.79a.64.64,0,0,1-.42.66c-1,.5-2.06,1-3.1,1.54a2,2,0,0,1-.77.12H6.16c-.15-.54-.18-34.93,0-35.77H9.44c.17-.52.22-20,.06-21-.39,0-.81,0-1.22,0a1.48,1.48,0,0,1-.73-.21c-1.65-1.17-3.27-2.38-4.91-3.55a1,1,0,0,1-.47-.93q0-10.75,0-21.5V85C4.8,85,7.38,85.06,10,85V73l-1.37-.65c-1-.46-1.91-.93-2.87-1.38-.45-.21-.89-.42-1.34-.61a.58.58,0,0,1-.4-.6c0-1.51,0-3-.08-4.52L3.88,60Zm5.62.51A15.31,15.31,0,0,1,9.27,58a46,46,0,0,1,.22-6.43,17.45,17.45,0,0,1,.85-4.29c.25-.64.52-1.27.79-1.9.18-.42.37-.84.57-1.29H6.85V59.69h.74l1.93,0v1.13c-.55.15-1.22-.14-1.39.67.37.15.37.49.37.85,0,2.89,0,5.77,0,8.66,0,.23,0,.47,0,.68a26.68,26.68,0,0,0,5.05-.06c-.4-1.23-.75-2.46-1.19-3.66-.61-1.67-1.31-3.3-1.94-5-.25-.65-.39-1.35-.61-2.13h.81c1.95,0,3.9.07,5.85.08h9.33l.8,0c0,.4,0,.7,0,1a31.18,31.18,0,0,0-.23,4.42c.05.46,0,.94,0,1.4.06,1.15.12,2.3.21,3.44a27.92,27.92,0,0,0,.28,3c.39,2.29.89,4.56,1.3,6.84a24.79,24.79,0,0,0,1.31,4.46c1.47,4,3.6,7.61,5.28,11.47a4.71,4.71,0,0,0,.38.62l1.43-1.32,2-1.85c.71-.67,1.42-1.34,2.11-2a1,1,0,0,0,.24-.58c0-1,0-2,0-2.92a1.47,1.47,0,0,0-.09-.29L38,91.33s0,0-.1,0L37.6,91l3-2.8H38a7.76,7.76,0,0,1-.32,1.07,5.15,5.15,0,0,0-.21,3.44A2,2,0,0,1,37,94.47a8.65,8.65,0,0,1-1.33,1.15s-.08,0-.15-.05a1.18,1.18,0,0,1,.55-.91,6.8,6.8,0,0,0,.73-.57.6.6,0,0,0,.08-.79c-.22-.3-.47-.19-.7,0s-.54.39-.81.58-.28.14-.42.21a3.59,3.59,0,0,1,.42-1,.83.83,0,0,0-.06-1,2.38,2.38,0,0,0-1-.82,3.12,3.12,0,0,1-1.84-1.72c-.24-.57-.56-1.11-.79-1.68-.64-1.56-1.28-3.12-1.86-4.7a42.66,42.66,0,0,1-1.41-6.81,39.32,39.32,0,0,1-.5-7.28c0-2.46,0-4.92.07-7.38a.66.66,0,0,1,0-.14l.1-.48h5.49l.1-1.16H41.2c.15-.87.11-15.34-.05-15.88h-14L27,42.87H12.43c.19-.39.33-.69.48-1a3.82,3.82,0,0,0,0-3.57c-.57-1.13-1.19-2.23-1.71-3.38a17.33,17.33,0,0,1-1.62-8.19,14,14,0,0,1,.72-4,14.38,14.38,0,0,1,2.62-4.89A6.8,6.8,0,0,1,17,15.46,16.82,16.82,0,0,1,22,15c.7.1,1.42.06,2.12.17a23.87,23.87,0,0,1,8.81,3.21,19,19,0,0,1,3.79,3,5.46,5.46,0,0,1,1.54,3.78,44.6,44.6,0,0,1-.51,5.41,8.2,8.2,0,0,0,.23,3.81c.16.42.28.85.4,1.27s.1.62-.32.89A9.53,9.53,0,0,1,37,37a1.08,1.08,0,0,0-.74.86,5.89,5.89,0,0,1-1.62,3.35,3.34,3.34,0,0,1-2.79,1.29c-.6,0-1.19-.08-1.79-.12a3.73,3.73,0,0,0-2.31.45H42.1c0-.18,0-.31,0-.44q0-13.87,0-27.75s0,0,0-.06l-.05,0H5.43c-.16.77-.12,27.81.05,28.35h6.68L12.25,44H21c1,0,1.91,0,2.87,0h2.91a4.31,4.31,0,0,0-.09,1,7.65,7.65,0,0,0,1.18,3.14c.66,1,1.32,2,1.89,3.05a55.78,55.78,0,0,1,2.92,6.84c.22.58.4,1.16.6,1.76H27.9c0-.86,0-1.63-.14-2.4a30.52,30.52,0,0,0-.58-3.93,12.41,12.41,0,0,0-1.86-3.88,10.73,10.73,0,0,0-1.14-1.29.53.53,0,0,0-.77-.09c-.25.22-.17.49,0,.72.32.48.64,1,1,1.41a11.56,11.56,0,0,1,1.78,3.1,13.27,13.27,0,0,1,.47,6.37h-.71c-1.82,0-3.64-.06-5.46-.07H14.22c-.25,0-.49,0-.73,0Zm20.93,51.43c-.4,0-.77-.09-1.15-.1l-7.44-.15c-2.13,0-4.25-.06-6.38-.08h-.13a2.81,2.81,0,0,1-.39-.1A8.54,8.54,0,0,1,18,109,9.58,9.58,0,0,0,19,108.6a3.15,3.15,0,0,0,.79-.48c1-1,2-1.92,3.05-2.87s2-1.84,3-2.76,2.15-2,3.24-3.06a.75.75,0,0,0,.24-.83c-.2-.75-.42-1.49-.64-2.23a2.48,2.48,0,0,0-.24-.44l-15.2,14.14.21.62c-.56.28-.12.85-.45,1.28H11c-.15,1.32-.09,20.35.07,20.87h2c.7,0,1.4,0,2.11,0l.08,1.28c3.3,0,6.53,0,9.76.11a1,1,0,0,1,0,.26,26.19,26.19,0,0,0-1.2,7.71,37.09,37.09,0,0,0,.68,8.79,7.59,7.59,0,0,0,1.75,3.81c1,1.15,2.13,2.26,3.2,3.38a4.13,4.13,0,0,0,.49.32c.46.36,1.05.53,1.42,1a2.54,2.54,0,0,0,1.31.87,7,7,0,0,1,1.47.74.67.67,0,0,1,0,1.23,3.56,3.56,0,0,1-1.22.47c-1.42.24-2.84.45-4.27.65a3.86,3.86,0,0,1-3-.64,4,4,0,0,0-2.08-.82,19.21,19.21,0,0,1-3.74-.89,19.1,19.1,0,0,0-2.59-.61,1.24,1.24,0,0,1-1.19-1,4.09,4.09,0,0,1-.06-1.05,7.82,7.82,0,0,1,.28-1.36,11.73,11.73,0,0,0,.46-3.48c0-.44-.08-.88-.09-1.32-.07-2.39-.38-4.76-.65-7.13-.2-1.64-.4-3.29-.57-4.94a43.18,43.18,0,0,1-.24-5.57c0-.15,0-.3,0-.43a75.35,75.35,0,0,0-8,0v33.11c.78.14,34.27.11,34.75,0,.11-1,.07-32.44-.06-32.93-.41,0-.83-.12-1.24-.12l-10.91-.09H29l-.08-1a12.66,12.66,0,0,1-2.36-.23c.38-.6.74-1.16,1.08-1.73a5.37,5.37,0,0,0,.66-1.22A12.54,12.54,0,0,0,28.7,125a7.11,7.11,0,0,1-.12-1.58A46.14,46.14,0,0,1,29.89,117c.06-.24.12-.53.46-.59a1.84,1.84,0,0,1,.46,1.08c.33,2.12.65,4.24,1,6.36a5.59,5.59,0,0,1-.37,2.86,9.5,9.5,0,0,0-.46,1.46,13.23,13.23,0,0,1-1.71,4.5,2.59,2.59,0,0,0-.18.4H44.16V112.25H30.53ZM47.67,75.25l-11-1.17c.34,2.23.73,4.36,1,6.51s.38,4.34.56,6.5c.93.13,9,.09,9.47,0Zm-1-3.39V61.13H33.78a94.43,94.43,0,0,1,2.36,10.73Zm-35.12,1c0,.06-.07.1-.07.14l0,13.5a4.57,4.57,0,0,0,.05.52s0,0,0,.06l.1.08h1.94a.65.65,0,0,0,.59-.35A4.07,4.07,0,0,1,14.8,86c.53-.46.54-.44.29-1.09,0-.1-.08-.21-.13-.31a1.34,1.34,0,0,1,.16-1.49,2.93,2.93,0,0,0,.66-1.64,10.33,10.33,0,0,0-.16-3q-.61-2.31-1.26-4.62c-.12-.42-.31-.82-.48-1.28-.08.1-.11.19-.15.19ZM21.58,84.74a7,7,0,0,1-1.9-.77,25,25,0,0,0-2.29-1.21,1.58,1.58,0,0,0-1.84.33.81.81,0,0,0-.25,1,2.7,2.7,0,0,1,.15,1.68,3.61,3.61,0,0,0-.07.73c0,.52.14.73.65.86a3.51,3.51,0,0,0,.92.06c.44,0,.88,0,1.32-.06,1.25,0,2.49,0,3.73,0,.47,0,.95-.08,1.52-.13-.17-.47-.29-.84-.44-1.2s-.26-.52-.36-.79a44.45,44.45,0,0,1-2.18-7.86c-.27-1.45-.36-2.93-.49-4.41s-.19-2.95-.3-4.43c-.07-1-.14-2-.29-3a5.81,5.81,0,0,0-.55-1.41.4.4,0,0,0-.37-.19c-.1,0-.2.22-.23.35a1.81,1.81,0,0,0,0,.46,8.47,8.47,0,0,1,.1,1.12A49.74,49.74,0,0,0,19,73.54c.22,1.73.56,3.44.87,5.16a21.56,21.56,0,0,0,1.46,5.1C21.4,84.06,21.46,84.34,21.58,84.74Zm5.6,8.52a2,2,0,0,0-.29.18l-5,4.72-3.64,3.4c-1.78,1.66-3.55,3.33-5.36,5a1.07,1.07,0,0,0-.35,1.42c.22.48.35,1,.53,1.54,1.32-1,14.85-13.68,15.15-14.19Zm-1.52-2.35-1.47,1.36-2.76,2.59-4,3.7-2.87,2.66-2.76,2.59c-.13.13-.32.34-.3.47a9.87,9.87,0,0,0,.62,2.24c5-4.59,9.85-9.13,14.75-13.68ZM11,100.1l.18.09L23.7,88.52l-.06-.13c-1.17,0-2.34,0-3.5,0a.93.93,0,0,0-.51.26c-.91.81-1.81,1.63-2.7,2.45-1.83,1.71-3.65,3.41-5.47,5.13a1.08,1.08,0,0,0-.33.62C11.07,97.93,11.05,99,11,100.1Zm.33,3.5L25.39,90.47l-1.17-1.76c-.39.38-.7.7-1,1-1.9,1.75-3.82,3.49-5.72,5.25l-6.17,5.75a.75.75,0,0,0-.25.5C11.12,102,11.23,102.69,11.34,103.6Zm18.22-3.73-.19-.05L20.52,108a1,1,0,0,0,.58,0c1-.2,1.95-.43,2.93-.59a2.62,2.62,0,0,0,2-1c0-.07.14-.11.2-.17l3.1-2.91a.76.76,0,0,0,.25-.7c0-.55,0-1.1,0-1.65ZM11.35,95.55c2.63-2.3,5.19-4.63,7.66-7.08-1.09-.07-2.15-.08-3.2-.06a.69.69,0,0,0-.39.21c-.57.5-1.11,1-1.68,1.51a3.78,3.78,0,0,0-1.09,1.56c-.4,1.06-.78,2.12-1.15,3.18A5.15,5.15,0,0,0,11.35,95.55Zm24,2.69.73,2.53c.27-.22.49-.39.7-.58s.58-.54.87-.81l3-2.86a.86.86,0,0,0,.29-.7c0-.73,0-1.46,0-2.19,0-.15,0-.29-.06-.55C39,94.86,37.17,96.54,35.34,98.24Zm1.44,6.13c.17-.14.28-.21.38-.3l3.58-3.36a.82.82,0,0,0,.23-.66c0-.86,0-1.73,0-2.59a3.85,3.85,0,0,0-.08-.47c-1.51,1.39-3,2.72-4.4,4.06a.64.64,0,0,0-.17.47C36.44,102.43,36.6,103.34,36.78,104.37Zm0,4.63,1.13-1c.9-.84,1.8-1.69,2.72-2.53a.91.91,0,0,0,.31-.76c0-1,0-1.91,0-2.86,0-.14,0-.28-.06-.54-1.19,1.1-2.27,2.14-3.4,3.12A1.4,1.4,0,0,0,36.9,106a1.2,1.2,0,0,1,0,.33C36.87,107.21,36.84,108.06,36.81,109ZM8,94.58l.16,0c.69-.65,1.35-1.33,2.07-1.95a8.2,8.2,0,0,0,2.07-2.47c.35-.67.72-1.34,1-2.12-.28,0-.46,0-.63,0a1.44,1.44,0,0,0-1.25.44c-1.07,1-2.17,2-3.25,3a.67.67,0,0,0-.2.39C8,92.83,8,93.71,8,94.58ZM41,105.79l-1.14,1c-.92.87-1.8,1.77-2.77,2.58a2.13,2.13,0,0,0-.75,1.68c.56,0,1.09,0,1.62,0a1.13,1.13,0,0,0,.89-.35c.63-.59,1.26-1.19,1.87-1.79a.84.84,0,0,0,.27-.43C41,107.64,41,106.79,41,105.79Zm.42-32.71c0,.31.24.38.48.4,2,.18,4.09.36,6.13.56a.76.76,0,0,0,.6-.16c.63-.47,1.26-.91,1.89-1.36.13-.1.24-.21.36-.32l0-.14h-3l-.11.88C45.58,73.05,43.48,72.84,41.38,73.08ZM11,92.76a4.57,4.57,0,0,0-.48.35A17.62,17.62,0,0,1,9,94.55a2.28,2.28,0,0,0-1,2.33,16.16,16.16,0,0,1,0,1.85,1.91,1.91,0,0,0,.3-.21c.6-.55,1.22-1.08,1.79-1.66a1.35,1.35,0,0,0,.33-.69C10.67,95.07,10.84,94,11,92.76ZM42.48,111H45a1,1,0,0,0,.36-.15l2.43-1.37a2.3,2.3,0,0,0,.36-.32L42.48,109Zm-34-1.18c.9-.82,1.78-1.62,2.64-2.44a.37.37,0,0,0,.08-.35c-.22-.66-.47-1.31-.73-2l-1.66,1.5c-.8.72-.8.72-.8,1.81,0,.2,0,.4,0,.6A1,1,0,0,0,8.51,109.86Zm1.81-12.39-.12-.06c-.67.63-1.35,1.25-2,1.91a.82.82,0,0,0-.15.54c0,.67,0,1.33,0,2V103a15.36,15.36,0,0,0,1.89-1.64.65.65,0,0,0,.16-.41C10.17,99.76,10.24,98.61,10.32,97.47ZM26,107.14a8,8,0,0,0,3.33-.09,1.13,1.13,0,0,0,.93-.93,5.92,5.92,0,0,0-.62-2.35Zm-18-.65.15,0c.68-.63,1.37-1.24,2-1.88a.69.69,0,0,0,.09-.48c-.05-.45-.14-.91-.2-1.36,0-.27,0-.54-.07-.92-.68.63-1.26,1.16-1.83,1.71a.49.49,0,0,0-.16.33C8,104.79,8,105.64,8,106.49Zm4.46,3.45-1-2.17-2.69,2.51a.58.58,0,0,0,.62.48,11,11,0,0,1,1.52,0A1.46,1.46,0,0,0,12.5,109.94ZM8,90.89l.16.1,2.92-2.78a12.87,12.87,0,0,0-2.21-.12.86.86,0,0,0-.86.88C8,89.61,8,90.25,8,90.89ZM33.7,111c0-.39,0-.69-.38-.85a3.58,3.58,0,0,1-.93-.49,1.56,1.56,0,0,0-1.07-.32L30.66,111Zm7.23-1.69A13.94,13.94,0,0,0,39.26,111h1.67ZM14.68,88.52c-.58-.12-.57.33-.67.67Z"/><path class="cls-2" d="M83.27,13.41h.2l20-.08h.82V169.84c-1.18,0-2.37,0-3.56,0h-18v2.81l.93.13c.74.11,1,.53.71,1.23a2.56,2.56,0,0,1-.11.24c-.27.73-.09,1,.71.92l.86,0a3.56,3.56,0,0,1-.13.64q-1.64,3.78-3.28,7.56a4.23,4.23,0,0,1-.24.4,1.26,1.26,0,0,1-.65-.82q-1-2.34-1.89-4.68c-.28-.7-.53-1.42-.79-2.12-.33-.87-.24-1,.71-1l.46,0a.65.65,0,0,0,.19-.09,1.56,1.56,0,0,0-.21-1c-.3-.69-.08-1.09.67-1.21l.68-.11c0-.91,0-1.83,0-2.82H60.93c0-.35,0-.63,0-.91V134.88q0-21.27,0-42.54L60.81,14.4v-1c.24,0,.41,0,.58,0H82l0,0-.1,1.33H65c-.92,0-1.85,0-2.82,0v.89q0,10,0,20.09c0,2.65.06,5.31.09,8,0,.15.05.29.07.45a3.82,3.82,0,0,0,.43,0H73.5a3,3,0,0,0,.51-.08h0c-.09.48-.19,1-.28,1.43H62.31c-.15.76-.13,14.71,0,15.2.9.14,8.61.09,9.09-.06a3.16,3.16,0,0,0,0-.32,38.71,38.71,0,0,1,.32-5.49c.12-1.21.39-2.4.57-3.6a49.05,49.05,0,0,1,1.37-5.75h6.06c.67,0,1.35,0,2.09,0l-.13,2.23h-.45a3.73,3.73,0,0,0-.46,0c-.4,0-.52.26-.36.62a1.78,1.78,0,0,0,.84.83.87.87,0,0,1,.45.87q0,5,0,10c0,.21,0,.43,0,.71H71.54v1.32l-1.59,0-7.31.1a3.24,3.24,0,0,0-.4.06v11c3.7-.06,7.36.16,11.07,0,0-.33-.07-.57-.11-.8-.39-2.36-.8-4.71-1.19-7.07-.18-1.11-.33-2.23-.49-3.34.35,0,.7,0,1.06,0,1.21,0,1.25,0,1.62,1.18l0,.13a24.57,24.57,0,0,1,.64,5.19c0,1.33,0,2.66,0,4v.74H73.41v1.25H62.3a1.13,1.13,0,0,0-.07.26q0,6.75,0,13.5a1.17,1.17,0,0,0,0,.26s0,0,0,0l.08.08H73.43l-.32,1.31h4.4c.41,1.25.76,2.45,1.2,3.6.68,1.73,1.4,3.45,2.14,5.16a6.87,6.87,0,0,1,.75,3.39c-.06.68,0,1.38,0,2.06v.7l-.89.17a5.52,5.52,0,0,0-3.11,1.68c-.58.66-1.06,1.41-1.59,2.12l-.36.43a2.46,2.46,0,0,0-.16-.3,31.09,31.09,0,0,1-2.85-4.56,6.17,6.17,0,0,1-.43-1.18,16.12,16.12,0,0,1-.33-5.62A45.22,45.22,0,0,1,72.93,91c.06-.26.08-.52.12-.77-.64-.16-10.28-.15-10.76,0v21.73H77.23a4.05,4.05,0,0,0-.76-1.56,7.48,7.48,0,0,1,5.07-4.17V112H77.37l.2,1.26-.4,0H62.87a4.06,4.06,0,0,0-.51,0,.62.62,0,0,0-.08.21q0,10,0,20c0,.13,0,.26,0,.39l0,0,.08.09H76.37c.26,0,.53,0,.79,0L77,135.28c1.54.09,3,0,4.53.08,0,.57-.09,1.08-.1,1.58l-.09,26.22v2.53c0,.22,0,.44,0,.7-.85.06-1.67.08-2.47.19a2.44,2.44,0,0,1-1.69-.4,1.46,1.46,0,0,1-.73-1.33,5.37,5.37,0,0,1,.25-1.43,12.08,12.08,0,0,0,.88-2.49c.07-.73.18-1.45.25-2.18a13.15,13.15,0,0,0-.18-4c-.4-2.11-.8-4.22-1.14-6.34-.21-1.35-.32-2.72-.45-4.08-.1-.9-.17-1.81-.23-2.71a13.67,13.67,0,0,1,.81-5.15c.12-.36.21-.72.33-1.13H62.28v.8c0,2.9.08,5.81.08,8.71q0,11.46,0,22.9v.84h19l.06,1.1h1.23l.06-1.11h17.7c.84,0,1.67,0,2.5,0V135.38H86.08c0,.16-.1.28-.13.41-.2,1.07-.43,2.13-.58,3.2-.19,1.33-.35,2.67-.47,4s-.17,2.42-.23,3.64c0,.73-.08,1.46-.07,2.19,0,1.75.08,3.5.14,5.25,0,1,.05,2,.16,3a5.32,5.32,0,0,0,2,3.64A23.58,23.58,0,0,0,92,163.94a13.81,13.81,0,0,0,4.72,1.29c.39,0,.58.22.58.58s-.26.51-.65.52l-1.88.09a1.52,1.52,0,0,0-.5.15,1.41,1.41,0,0,1-1.22.08.85.85,0,0,0-.76.06,1.64,1.64,0,0,1-1.34.1,2,2,0,0,0-1-.08,9.45,9.45,0,0,1-3.09.16c-.88-.12-1.75-.3-2.62-.43-.48-.07-1-.11-1.5-.17v-.76c0-2.64.06-5.28.06-7.91,0-6.86,0-13.72,0-20.58,0-.56.07-1.12.12-1.75H86l.36-1.28H82.91V114.73l2.06.79a1.12,1.12,0,0,0,1.4-.44,10.37,10.37,0,0,0,.63-.85c.2-.32.37-.65.59-1h4.52l.23-1.15c-1.46-.09-2.86,0-4.23-.07.16-1.32.4-2.57.44-3.82s-.11-2.49-.18-3.72c1.95-.42,4.17-.49,4.91.13.09,2.47-.54,4.88-.81,7.37h10.45c.13-.79.1-21.27,0-21.79h-10c.16,2.14.33,4.23.45,6.32a45.67,45.67,0,0,1,.09,6.42,16.39,16.39,0,0,0-5.28.22c-.66-4.36-1.31-8.66-2-13h6.59l-.08-1.31v0l10.21,0c.14-1.08.09-13.57-.06-14.09H94.71c-.27,0-.53,0-.8,0l0,0,.2-1.28c-3.24,0-6.37,0-9.54,0,.1-3.8.55-7.47.86-11.22h8.62c-.17-.53-.32-1-.46-1.4a3,3,0,0,0,.51.08h8.32a4,4,0,0,0,.5-.06c.13-1,.08-14.64-.07-15.18-5.7.1-11.42-.18-17.21,0,.09.22.13.34.19.45q1.68,3,3.37,5.89c.75,1.28,1.6,2.51,2.27,3.83.77,1.5,1.39,3.07,2.06,4.61a1.56,1.56,0,0,1,.07.44,3.75,3.75,0,0,1-.57.09H86l-.54,0a1.56,1.56,0,0,1,0-.35,42.4,42.4,0,0,0-.23-4.64,20.68,20.68,0,0,0-.82-4.56,4.53,4.53,0,0,0-.72-1.48A2.18,2.18,0,0,1,83.09,48c0-.17,0-.35,0-.53,0-.66.08-1.31.12-2h2.35L85,44.07H83.16v-1q.06-12.7.1-25.42V16.64c0-.17,0-.34.06-.55.63.09,1.22.14,1.81.24a20.87,20.87,0,0,1,5.32,1.39,10.87,10.87,0,0,1,3,2.05,7.14,7.14,0,0,1,1.8,2.84,4.37,4.37,0,0,1,.27,1.29,27.33,27.33,0,0,1-.34,4.42,8.59,8.59,0,0,0,1,5.79.66.66,0,0,1-.15,1,2.73,2.73,0,0,1-.47.37,1.33,1.33,0,0,0-.75,1.36,6.17,6.17,0,0,1-.7,2.68A2.29,2.29,0,0,1,92,41c-.81,0-1.63,0-2.45,0l-2.85-.12a1.31,1.31,0,0,0-1.17.51,3.41,3.41,0,0,0-.38,2.72c6-.11,11.88.15,17.82,0V14.64H84.12c-.28,0-.56,0-.83,0V13.39Zm8.91,99.88c-.07.31-.14.61-.22.91-.26,1-.48,2.07-.8,3.08-.63,2-1.3,4-2,5.93a11,11,0,0,0-.72,3.09c0,.56,0,1.12-.07,1.66a15.8,15.8,0,0,1-1.05,3.76c-.29.71-.53,1.44-.82,2.23H103V113.29Zm10.78-40V62.24a81.57,81.57,0,0,0-8.74,0,36.1,36.1,0,0,1,0,11ZM81.86,175.74v0l-.8-.06c-.5,0-.83.24-.78.74a4.27,4.27,0,0,0,.32,1.2.26.26,0,0,0,.48.05.85.85,0,0,0,.14-.54c0-.54,0-.58.59-.53a4.1,4.1,0,0,0,1,0c.23,0,.51-.15.48-.45a.47.47,0,0,0-.56-.43C82.43,175.76,82.14,175.74,81.86,175.74Z"/><path class="cls-2" d="M82,13.41c0-.26-.07-.53-.07-.79q0-5.8,0-11.63c0-.11,0-.22,0-.33,0-.43.21-.63.59-.66a.67.67,0,0,1,.76.58,3,3,0,0,1,0,.6V12.61c0,.27,0,.53,0,.8l0,0H81.94Z"/><path class="cls-2" d="M13.36,111.93c.66,0,1.23,0,1.81,0,.75,0,1.5,0,2.26.06l6.77.08c1.51,0,3,.06,4.52.1.46,0,.92.06,1.46.1-.09.37-.15.71-.25,1-.5,1.74-1,3.49-1.53,5.23a9.82,9.82,0,0,0-.45,2.8c0,.86-.08,1.73-.08,2.59,0,.68.07,1.37.07,2a13.65,13.65,0,0,1-.1,1.92,4.36,4.36,0,0,1-.38,1.26c-.53,1.17-1.11,2.31-1.63,3.49a.63.63,0,0,1-.7.44l-4.84-.15c-.54,0-1.07,0-1.6,0l-3.27-.08c.12-.48.21-.9.33-1.32.26-.87.57-1.72.78-2.61a5.15,5.15,0,0,0,.1-2.73c-.44-1.56-.81-3.14-1.14-4.72-.21-1-.3-2-.46-3.08a47.54,47.54,0,0,0-1.59-6.1Z"/><path class="cls-2" d="M34.41,157.43a3.62,3.62,0,0,1-.93.45,11.84,11.84,0,0,1-2,.19,1.77,1.77,0,0,1-1.29-.58,37.28,37.28,0,0,1-3.64-4.2c-.27-.37-.49-.76-.74-1.14L26,152a5.5,5.5,0,0,1,.57.36,19.72,19.72,0,0,0,5,2.73,11,11,0,0,1,2.25,1.27A1.36,1.36,0,0,1,34.41,157.43Z"/><path class="cls-2" d="M26.15,134.24H28.2a2.34,2.34,0,0,1-.11.28,30.76,30.76,0,0,0-2.55,4.77s-.08,0-.2.08a2.1,2.1,0,0,1-.12-.54A29,29,0,0,1,26.15,134.24Z"/><path class="cls-2" d="M14.93,155.14a2.28,2.28,0,0,1,.35-1.27,4.46,4.46,0,0,0,.27-.67c.08-.2.11-.46.4-.44s.3.26.34.48a1.88,1.88,0,0,1-.05.91,8.1,8.1,0,0,0-.18,1.23A2.25,2.25,0,0,1,16,156c-.06.16-.27.39-.39.38a.71.71,0,0,1-.48-.36A3.87,3.87,0,0,1,14.93,155.14Z"/><path class="cls-2" d="M74,44.08a11.31,11.31,0,0,0,.43-1.15c.21-.81.39-1.63.53-2.46a2.28,2.28,0,0,0-.45-1.94c-1-1.15-1.92-2.32-2.89-3.46a12.66,12.66,0,0,1-2.43-3.86,9.15,9.15,0,0,1-.46-2.27,13.16,13.16,0,0,1,.05-2.51,12.13,12.13,0,0,1,1.77-5,13.37,13.37,0,0,1,2.64-3.32,7.31,7.31,0,0,1,3.63-1.83,18.17,18.17,0,0,1,2.42-.38c.83,0,1.67.05,2.56.08a3.07,3.07,0,0,1,.06.51c0,2.55,0,5.1,0,7.65,0,1.24,0,2.48-.07,3.72,0,.35,0,.57-.46.65a3.21,3.21,0,0,0-2.24,2.83,9,9,0,0,0,0,1.27,4.83,4.83,0,0,0,1.71,3.33c.32.27.77.49.92.83a3.34,3.34,0,0,1,.07,1.31v6a2.9,2.9,0,0,1-.38.07l-6.85.07a3.11,3.11,0,0,1-.58-.11Z"/><path class="cls-2" d="M83.05,90.11h2.27c.17.93.32,1.84.5,2.75.57,2.93,1,5.89,1.3,8.86.18,1.58.25,3.17.43,4.75a21.79,21.79,0,0,1-.1,4c0,.09,0,.18,0,.26-.22,1.27-.22,1.27-1.5,1.27H84a4.81,4.81,0,0,0-.89-3.69,1.49,1.49,0,0,1-.2-.68q0-7.78,0-15.57C82.93,91.46,83,90.82,83.05,90.11Z"/><path class="cls-2" d="M77.14,134.05c.1-1.07.25-2.14.31-3.22.21-3.86.21-7.73.18-11.6,0-2-.06-4-.09-6h4V134Z"/><path class="cls-2" d="M93.91,74.62c-.18,1.14-.36,2.27-.53,3.4-.29,2-.57,4.07-.85,6.11a68.94,68.94,0,0,1-7.24.05c-.53-1.52-1-8.48-.62-9.53h9.26Z"/><path class="cls-2" d="M76.1,74.61h5.43c.14.49.19,13.2,0,14.13h-3.5c-.23-.71-.48-1.43-.7-2.17a25.45,25.45,0,0,1-.76-4.51c-.18-1.62-.38-3.24-.51-4.87C76,76.36,76.1,75.52,76.1,74.61Z"/><path class="cls-2" d="M81.56,73.32H76c-.11-3.74,0-7.46-.92-11.13h6.53C81.8,63,81.73,72.54,81.56,73.32Z"/><path class="cls-2" d="M92.73,88.76H86l-.59-3.5h7.19c.06,1.19.11,2.35.17,3.52Z"/><path class="cls-2" d="M83.07,74.61h.51c0,.08.08.14.08.2l-.09,2a33.28,33.28,0,0,0,.68,7.11c.24,1.41.49,2.83.73,4.24a4.73,4.73,0,0,1,0,.52,4.7,4.7,0,0,1-2,.06Z"/><path class="cls-2" d="M73.57,74.62h1.26a76.65,76.65,0,0,1,.75,9.57,1.28,1.28,0,0,1-1.16,0,1.79,1.79,0,0,1,0-.51,9.93,9.93,0,0,0-.14-3.22c-.18-1.69-.44-3.37-.66-5A6.44,6.44,0,0,1,73.57,74.62Z"/><path class="cls-2" d="M83.13,62.19h1.42l-.89,11.12H83C83.06,69.6,83.1,65.91,83.13,62.19Z"/><path class="cls-2" d="M81.57,90.15v6.66l-.14,0a52.36,52.36,0,0,1-2.81-6.69Z"/><path class="cls-2" d="M83.32,51.42a22.47,22.47,0,0,1,1.24,9.37H83.14V51.44Z"/><path class="cls-2" d="M73.45,88.78a.87.87,0,0,1,0-.31q.43-1.6.87-3.18a1.83,1.83,0,0,1,.23-.07c1.38-.09,1.38-.09,1.79,1.23.22.74.47,1.48.73,2.3a15.42,15.42,0,0,1-1.79,0c-.6,0-1.2,0-1.8,0Z"/><path class="cls-2" d="M81.77,34.54a1.53,1.53,0,0,1-1.52-1.34,8.14,8.14,0,0,1,0-1.91c.1-.72.62-1.1,1.5-1.22Z"/><path class="cls-2" d="M83.44,113.28h3a5.1,5.1,0,0,1-.49.91.71.71,0,0,1-.56.25,3.78,3.78,0,0,1-1.87-.94S83.48,113.39,83.44,113.28Z"/><g class="cls-3"><path class="cls-2" d="M102,178.63a4.82,4.82,0,0,1-.4,2,5,5,0,0,1-1.08,1.6A4.87,4.87,0,0,1,99,183.28a5,5,0,0,1-2,.39,4.76,4.76,0,0,1-2-.4,4.91,4.91,0,0,1-1.6-1.08,5.22,5.22,0,0,1-1.09-1.6,5,5,0,0,1,0-3.91,5.17,5.17,0,0,1,2.69-2.7A5.1,5.1,0,0,1,99,174a5.22,5.22,0,0,1,1.6,1.09,5,5,0,0,1,1.08,1.61A4.76,4.76,0,0,1,102,178.63Zm-.74,0A4.26,4.26,0,0,0,101,177a4.6,4.6,0,0,0-.92-1.36,4.46,4.46,0,0,0-1.37-.92,4.12,4.12,0,0,0-1.67-.34,4.08,4.08,0,0,0-1.66.34,4.34,4.34,0,0,0-1.37.92,4.41,4.41,0,0,0-.92,1.36,4.09,4.09,0,0,0-.34,1.67,4,4,0,0,0,.34,1.66,4.46,4.46,0,0,0,.92,1.37,4.52,4.52,0,0,0,1.37.92,4.25,4.25,0,0,0,1.66.34,4.3,4.3,0,0,0,1.67-.34,4.28,4.28,0,0,0,2.29-2.29A4.21,4.21,0,0,0,101.3,178.63ZM98,181.16,97.21,179H96.06v2.15h-1v-5.32h1.78a4.64,4.64,0,0,1,.85.07,1.89,1.89,0,0,1,.69.25,1.33,1.33,0,0,1,.46.53,2,2,0,0,1,.17.87A1.75,1.75,0,0,1,99,178a1.1,1.1,0,0,1-.47.6,3.81,3.81,0,0,1-.41.22l1,2.3Zm0-3.69a.58.58,0,0,0-.27-.55,1.18,1.18,0,0,0-.63-.16H96.06v1.4h1.15a1,1,0,0,0,.57-.16A.6.6,0,0,0,98,177.47Z"/></g><path class="cls-2" d="M601.26,127.05h-2.44v2.45h2.44Zm-9.71,2.45,6.77-20.33h-1.61l-6.34,18.55h-.06l-6.23-18.55h-1.61l6.63,20.33ZM582,127.05h-2.44v2.45H582Zm-9.44-10.46a2.74,2.74,0,0,1,2.36,1.15,3.07,3.07,0,0,1,.59,1.8h-6.29q.59-3,3.34-3m1.86,11.85a4.77,4.77,0,0,1-4.71-2.62,7.68,7.68,0,0,1-.69-3.43c0-.62,0-1.11,0-1.44h8.22v-.74a5.45,5.45,0,0,0-1.05-3.41,4.32,4.32,0,0,0-3.63-1.62q-5.34,0-5.34,6.95a8.58,8.58,0,0,0,1.72,5.71,6.16,6.16,0,0,0,4.94,2,13.37,13.37,0,0,0,3.07-.35v-1.44a8,8,0,0,1-2.56.38m-26.21,1.06v-5.37a10.42,10.42,0,0,1,1.28-5.23q1.31-2.34,3.15-2.34a2.11,2.11,0,0,1,2.16,1.51,7.9,7.9,0,0,1,.31,2.59v8.84h1.47V119.12a3.65,3.65,0,0,0-3.65-4,4.37,4.37,0,0,0-3.44,1.37,6.66,6.66,0,0,0-1.22,2.4h-.06v-3.45H546.7v14Zm-10.61-12.94c2.69,0,4,2,4,6.14q0,5.72-4,5.71t-3.92-5.71c0-4.1,1.31-6.14,3.92-6.14M542,127.7a10.64,10.64,0,0,0,0-10.41,5,5,0,0,0-4.35-2.14,5.06,5.06,0,0,0-4.39,2.14,10.44,10.44,0,0,0,0,10.41,5.06,5.06,0,0,0,4.39,2.12A5,5,0,0,0,542,127.7m-12.52-18.53h-2.17v2.39h2.17Zm-.36,6.3h-1.47v14h1.47Zm-5.64,12.94a2.09,2.09,0,0,1-2-1,3.85,3.85,0,0,1-.28-1.69v-8.88h3.73v-1.41h-3.73v-4.22l-1.47,1v3.24h-2.25v1.41h2.25v9.49c0,2.3,1.23,3.45,3.71,3.45a8.4,8.4,0,0,0,1.49-.12v-1.55a4.89,4.89,0,0,1-1.43.26m-9.79-2.31a3.92,3.92,0,0,1-1.42,1.38,4,4,0,0,1-2.06.58,2.19,2.19,0,0,1-1.46-.53,1.71,1.71,0,0,1-.62-1.39,2.67,2.67,0,0,1,1.39-2.39,6.5,6.5,0,0,1,3.36-.77h1.46a6.09,6.09,0,0,1-.65,3.12m2.12,3.72V120a6.83,6.83,0,0,0-.56-3.16c-.65-1.14-1.93-1.71-3.83-1.71a5.21,5.21,0,0,0-3.8,1.28,3.26,3.26,0,0,0-1,2.4h1.54a2.75,2.75,0,0,1,3.05-2.27c1.71,0,2.73.67,3,2a20.36,20.36,0,0,1,.12,3q-8,.12-8,4.5a4,4,0,0,0,.75,2.46,3.25,3.25,0,0,0,2.82,1.29,5,5,0,0,0,4.35-2.3h.06v2.3Zm-12.43-20.65h-2.18v2.39h2.18Zm-.36,6.3h-1.47v14H503ZM496,128.41q-5.34,0-5.34-6.36a8.12,8.12,0,0,1,.76-3.72,3,3,0,0,1,2.75-1.77,2.33,2.33,0,0,1,1.94.89,3.16,3.16,0,0,1,.65,2.06h1.92a4.77,4.77,0,0,0-.73-2.66,4.18,4.18,0,0,0-3.75-1.7q-5.31,0-5.31,7.13a8.17,8.17,0,0,0,1.64,5.43,6.42,6.42,0,0,0,5.22,2.11,9.78,9.78,0,0,0,2.42-.27v-1.41a9.88,9.88,0,0,1-2.17.27m-15.15-11.85c2.69,0,4,2,4,6.14q0,5.72-4,5.71t-3.92-5.71c0-4.1,1.31-6.14,3.92-6.14m4.44,11.14a10.57,10.57,0,0,0,0-10.41,5,5,0,0,0-4.34-2.14,5.06,5.06,0,0,0-4.39,2.14,10.44,10.44,0,0,0,0,10.41,5.06,5.06,0,0,0,4.39,2.12,5,5,0,0,0,4.34-2.12m-18.84-7.56a1.9,1.9,0,0,1-.89-1.58,1.69,1.69,0,0,1,.79-1.42,3.59,3.59,0,0,1,2.19-.58,10.62,10.62,0,0,1,3.3.59v-1.54a15.4,15.4,0,0,0-3.43-.46q-4.62,0-4.62,3.71a3,3,0,0,0,1.23,2.42,15.13,15.13,0,0,0,2.28,1.24l1.18.55A9.48,9.48,0,0,1,470,124a2.24,2.24,0,0,1,.92,1.81q0,2.65-3.59,2.65a11.8,11.8,0,0,1-3.69-.67v1.51a12,12,0,0,0,3.69.57q5.36,0,5.36-4.24a3.36,3.36,0,0,0-1.1-2.65,12.44,12.44,0,0,0-2.2-1.28l-1.21-.59c-1-.49-1.61-.81-1.79-.92m-11.2,0a1.9,1.9,0,0,1-.89-1.58,1.69,1.69,0,0,1,.79-1.42,3.59,3.59,0,0,1,2.19-.58,10.46,10.46,0,0,1,3.29.59v-1.54a15.25,15.25,0,0,0-3.42-.46q-4.62,0-4.62,3.71a3,3,0,0,0,1.22,2.42,16,16,0,0,0,2.29,1.24l1.18.55a9.48,9.48,0,0,1,1.58.88,2.24,2.24,0,0,1,.92,1.81c0,1.77-1.19,2.65-3.59,2.65a11.74,11.74,0,0,1-3.68-.67v1.51a11.9,11.9,0,0,0,3.68.57q5.37,0,5.37-4.24a3.37,3.37,0,0,0-1.11-2.65,12.44,12.44,0,0,0-2.2-1.28l-1.21-.59c-1-.49-1.61-.81-1.79-.92M443,110.78l3.41,10.52h-6.58L443,110.78Zm-5.76,18.72,2.07-6.58h7.6l2.16,6.58h1.73l-6.57-20.33H442l-6.46,20.33Z"/><path class="cls-2" d="M431.16,88.08c.4,0,.6.18.59.53a.51.51,0,0,1-.59.54h-.72V88.08Zm-1.27,3.12h.55V89.7h.62l.58,1.5h.7l-.66-1.63.2-.11a1,1,0,0,0,.42-.86c0-.68-.39-1-1.17-1.06h-1.24ZM429,87.35a2.86,2.86,0,0,1,2.1-.86,3,3,0,0,1,3,3,3,3,0,0,1-.87,2.12,2.82,2.82,0,0,1-2.1.87,2.93,2.93,0,0,1-1.5-.4A2.76,2.76,0,0,1,428.48,91a2.91,2.91,0,0,1-.4-1.5,2.88,2.88,0,0,1,.88-2.11m-1.4,2.12a3.36,3.36,0,0,0,1,2.49,3.54,3.54,0,0,0,4.22.55,3.52,3.52,0,0,0,1.27-4.79,3.45,3.45,0,0,0-1.28-1.29,3.5,3.5,0,0,0-1.75-.46,3.54,3.54,0,0,0-1.76.47A3.3,3.3,0,0,0,428,87.72a3.59,3.59,0,0,0-.47,1.75m-19.24,17.27V110h10.37v14q-3.12,2.59-8.44,2.59-11.82,0-11.82-19.05,0-7,2.33-11.13a9.28,9.28,0,0,1,8.69-5.06c3.22,0,5.62.92,7.22,2.78a8.55,8.55,0,0,1,1.95,5.76h4.18a11.19,11.19,0,0,0-3.31-8.14c-2.48-2.52-5.8-3.78-10-3.78A12.94,12.94,0,0,0,398,93.93q-3.51,5.23-3.5,13.7,0,22.35,15.79,22.36a19.9,19.9,0,0,0,11.91-4V106.74ZM366.9,129.32V93.9H367l17,35.42h5.07V88.67h-3.55V125h-.12L368.13,88.67h-4.77v40.65ZM355.16,88.67h-3.54v40.65h3.54Zm-24.71,40.65V109.65h14.39v-3.26H330.45V91.92h15V88.67H326.92v40.65Zm-6.42,0v-3.25H309.58V88.67h-3.53v40.65ZM286.88,91.38q10,0,10,17.43,0,17.81-10,17.81t-10-17.81q0-17.43,10-17.43m11.24,31.76q2.67-5.3,2.68-14.16t-2.68-14.12A11.56,11.56,0,0,0,287.07,88a11.9,11.9,0,0,0-11.25,6.86Q273,100.26,273,109t2.85,14.16A11.89,11.89,0,0,0,287.07,130a11.55,11.55,0,0,0,11.05-6.85M254.06,91.92q9.84,0,9.84,7.16,0,8.61-11.3,8.61h-3.2V91.92Zm-4.66,37.4V110.94h4.89c2.82,0,4.85.76,6.08,2.3q1.32,1.67,2.36,6.47l2.07,9.61h3.53l-2.29-11a21,21,0,0,0-1.76-5.69,7.6,7.6,0,0,0-5-3.31v-.12a16,16,0,0,0,4.4-1.75q3.81-2.68,3.81-8.41,0-10.41-13-10.41h-8.54v40.65Z"/><path class="cls-2" d="M222.93,129.5v-5.37a10.53,10.53,0,0,1,1.28-5.23q1.32-2.34,3.15-2.34a2.1,2.1,0,0,1,2.16,1.51,7.85,7.85,0,0,1,.32,2.59v8.84h1.47V119.12a3.65,3.65,0,0,0-3.66-4,4.4,4.4,0,0,0-3.44,1.37,7,7,0,0,0-1.22,2.4h-.06v-3.45h-1.46v14Zm-8-3.4a3.92,3.92,0,0,1-1.42,1.38,4.07,4.07,0,0,1-2.06.58,2.19,2.19,0,0,1-1.47-.53,1.74,1.74,0,0,1-.62-1.39,2.68,2.68,0,0,1,1.4-2.39,6.46,6.46,0,0,1,3.35-.77h1.47a6.2,6.2,0,0,1-.65,3.12m2.12,3.72V120a6.83,6.83,0,0,0-.56-3.16c-.66-1.14-1.93-1.71-3.83-1.71a5.21,5.21,0,0,0-3.8,1.28,3.27,3.27,0,0,0-1,2.4h1.54a2.75,2.75,0,0,1,3-2.27c1.72,0,2.74.67,3.05,2a20.36,20.36,0,0,1,.12,3q-8,.12-8,4.5a4,4,0,0,0,.75,2.46,3.25,3.25,0,0,0,2.82,1.29,5,5,0,0,0,4.36-2.3h.06v2.3ZM200,116.59a2.72,2.72,0,0,1,2.36,1.15,3.07,3.07,0,0,1,.59,1.8h-6.28q.57-3,3.33-3m1.86,11.85q-3.42,0-4.7-2.62a7.68,7.68,0,0,1-.69-3.43c0-.62,0-1.11,0-1.44h8.22v-.74a5.45,5.45,0,0,0-1.05-3.41,4.31,4.31,0,0,0-3.63-1.62q-5.34,0-5.34,6.95a8.58,8.58,0,0,0,1.72,5.71,6.17,6.17,0,0,0,5,2,13.35,13.35,0,0,0,3.06-.35v-1.44a8,8,0,0,1-2.56.38m-17.58-9.89a3.27,3.27,0,0,1,2.91-2c2.18,0,3.26,1.92,3.26,5.75,0,4.07-1.08,6.1-3.26,6.1a3.33,3.33,0,0,1-3.14-2.37,9.24,9.24,0,0,1-.7-3.67,7.8,7.8,0,0,1,.93-3.82m-1,17.25v-8.89h.06a3.81,3.81,0,0,0,4,2.91,4,4,0,0,0,3.22-1.46c1.08-1.28,1.61-3.29,1.61-6q0-7.18-4.83-7.18a4,4,0,0,0-4,2.91h-.06v-2.59h-1.47V135.8ZM172,116.56c2.69,0,4,2,4,6.14q0,5.72-4,5.71T168,122.7c0-4.1,1.31-6.14,3.92-6.14m4.44,11.14a10.57,10.57,0,0,0,0-10.41,5,5,0,0,0-4.34-2.14,5,5,0,0,0-4.39,2.14,10.38,10.38,0,0,0,0,10.41,5.05,5.05,0,0,0,4.39,2.12,5,5,0,0,0,4.34-2.12m-16.67,1.8v-5.66a10.84,10.84,0,0,1,.85-4.59,3.83,3.83,0,0,1,3.67-2.52v-1.58a4.35,4.35,0,0,0-4.45,3.18h-.07v-2.86h-1.47v14Zm-5.92,0v-14h-1.46v5.37a10.35,10.35,0,0,1-1.3,5.23c-.88,1.56-1.94,2.34-3.16,2.34a2.1,2.1,0,0,1-2.16-1.49,8,8,0,0,1-.32-2.6v-8.85h-1.46v10.37a3.69,3.69,0,0,0,3.67,4,4.45,4.45,0,0,0,3.48-1.38,6.76,6.76,0,0,0,1.25-2.4h0v3.46Zm-13.37,0v-1.63h-7.51v-8.22h6.92V118h-6.92v-7.24h7.51v-1.62h-9.28V129.5Z"/></g></g></svg>