<?xml version="1.0" encoding="UTF-8" standalone="no"?>
<svg
   viewBox="0 0 601.26 183.76"
   version="1.1"
   id="svg226"
   sodipodi:docname="rolfing_logo_sitdikova_ru.svg"
   inkscape:version="1.2.2 (732a01da63, 2022-12-09)"
   xmlns:inkscape="http://www.inkscape.org/namespaces/inkscape"
   xmlns:sodipodi="http://sodipodi.sourceforge.net/DTD/sodipodi-0.dtd"
   xmlns="http://www.w3.org/2000/svg"
   xmlns:svg="http://www.w3.org/2000/svg">
  <sodipodi:namedview
     id="namedview228"
     pagecolor="#ffffff"
     bordercolor="#000000"
     borderopacity="0.25"
     inkscape:showpageshadow="2"
     inkscape:pageopacity="0.0"
     inkscape:pagecheckerboard="0"
     inkscape:deskcolor="#d1d1d1"
     showgrid="false"
     inkscape:zoom="2.2402953"
     inkscape:cx="336.56277"
     inkscape:cy="95.299937"
     inkscape:window-width="1920"
     inkscape:window-height="1028"
     inkscape:window-x="1432"
     inkscape:window-y="-8"
     inkscape:window-maximized="1"
     inkscape:current-layer="Livello_1"
     showguides="true">
    <sodipodi:guide
       position="582.5125,91.361462"
       orientation="0,-1"
       id="guide1358"
       inkscape:locked="false" />
  </sodipodi:namedview>
  <defs
     id="defs167">
    <rect
       x="130.78633"
       y="91.505792"
       width="417.80206"
       height="65.616349"
       id="rect1092" />
    <rect
       x="119.62708"
       y="17.408419"
       width="303.53141"
       height="56.688954"
       id="rect340" />
    <style
       id="style165">.cls-1{isolation:isolate;}.cls-2{fill:#003648;}.cls-3{mix-blend-mode:multiply;}</style>
    <rect
       x="130.78633"
       y="91.505791"
       width="417.80206"
       height="65.616348"
       id="rect1092-1" />
  </defs>
  <g
     class="cls-1"
     id="g224"
     transform="translate(20)">
    <g
       id="Livello_1"
       data-name="Livello 1">
      <path
         class="cls-2"
         d="m 7.88,59.25 2.19,1.19 0.65,-0.7 -2.19,-1.6 c -1.33,-1 -2.65,-1.93 -4,-2.87 a 1.1,1.1 0 0 1 -0.54,-1 c 0,-1.82 0,-3.64 0,-5.46 0,-2.33 0,-4.65 0.07,-7 0,-0.15 0,-0.3 0,-0.52 H 8 C 8,40.4 8,39.57 8,38.74 V 13.45 h 41.49 v 0 0 c 0,0.16 0,0.31 0,0.47 q 0,14.91 0,29.82 c 0,0 0,0.08 -0.09,0.18 h -3 c -0.17,0.53 -0.2,15.12 0,15.93 h 5.27 v 11.39 a 4.48,4.48 0 0 0 1.49,0.1 c 0.46,0 0.93,0 1.4,0 h 1.47 c 0,0.66 0.12,1.25 0.14,1.84 0,0.88 0.06,1.77 0.08,2.65 0,1.49 0,3 0.07,4.46 0,1.26 0.08,2.52 0.17,3.78 a 1.2,1.2 0 0 1 -0.62,1.19 c -1.26,0.83 -2.49,1.7 -3.71,2.59 a 1.53,1.53 0 0 1 -1,0.29 c -1.44,0 -2.89,0 -4.33,0 -0.13,0 -0.26,0 -0.43,0 v 19.66 l 7.51,0.4 v 0.8 q 0,9.95 0,19.9 a 1.21,1.21 0 0 1 -0.55,1.11 c -0.93,0.68 -1.83,1.4 -2.75,2.1 l -0.33,0.29 c 0,0.07 0,0.13 0,0.15 a 2.34,2.34 0 0 1 0.66,2.06 c 0,1.07 0,2.13 0,3.2 0,3.9 -0.05,7.81 -0.07,11.71 0,3.68 -0.05,7.36 -0.08,11 0,1.93 -0.06,3.86 -0.08,5.79 a 0.64,0.64 0 0 1 -0.42,0.66 c -1,0.5 -2.06,1 -3.1,1.54 a 2,2 0 0 1 -0.77,0.12 H 10.16 c -0.15,-0.54 -0.18,-34.93 0,-35.77 h 3.28 c 0.17,-0.52 0.22,-20 0.06,-21 -0.39,0 -0.81,0 -1.22,0 a 1.48,1.48 0 0 1 -0.73,-0.21 C 9.9,110.48 8.28,109.27 6.64,108.1 a 1,1 0 0 1 -0.47,-0.93 q 0,-10.75 0,-21.5 V 85 c 2.63,0 5.21,0.06 7.83,0 V 73 L 12.63,72.35 C 11.63,71.89 10.72,71.42 9.76,70.97 9.31,70.76 8.87,70.55 8.42,70.36 a 0.58,0.58 0 0 1 -0.4,-0.6 c 0,-1.51 0,-3 -0.08,-4.52 L 7.88,60 Z m 5.62,0.51 A 15.31,15.31 0 0 1 13.27,58 a 46,46 0 0 1 0.22,-6.43 17.45,17.45 0 0 1 0.85,-4.29 c 0.25,-0.64 0.52,-1.27 0.79,-1.9 0.18,-0.42 0.37,-0.84 0.57,-1.29 h -4.85 v 15.6 h 0.74 1.93 v 1.13 c -0.55,0.15 -1.22,-0.14 -1.39,0.67 0.37,0.15 0.37,0.49 0.37,0.85 0,2.89 0,5.77 0,8.66 0,0.23 0,0.47 0,0.68 a 26.68,26.68 0 0 0 5.05,-0.06 c -0.4,-1.23 -0.75,-2.46 -1.19,-3.66 -0.61,-1.67 -1.31,-3.3 -1.94,-5 -0.25,-0.65 -0.39,-1.35 -0.61,-2.13 h 0.81 c 1.95,0 3.9,0.07 5.85,0.08 h 9.33 0.8 c 0,0.4 0,0.7 0,1 a 31.18,31.18 0 0 0 -0.23,4.42 c 0.05,0.46 0,0.94 0,1.4 0.06,1.15 0.12,2.3 0.21,3.44 a 27.92,27.92 0 0 0 0.28,3 c 0.39,2.29 0.89,4.56 1.3,6.84 a 24.79,24.79 0 0 0 1.31,4.46 c 1.47,4 3.6,7.61 5.28,11.47 a 4.71,4.71 0 0 0 0.38,0.62 l 1.43,-1.32 2,-1.85 c 0.71,-0.67 1.42,-1.34 2.11,-2 a 1,1 0 0 0 0.24,-0.58 c 0,-1 0,-2 0,-2.92 A 1.47,1.47 0 0 0 44.82,88.6 L 42,91.33 c 0,0 0,0 -0.1,0 L 41.6,91 l 3,-2.8 H 42 a 7.76,7.76 0 0 1 -0.32,1.07 5.15,5.15 0 0 0 -0.21,3.44 2,2 0 0 1 -0.47,1.76 8.65,8.65 0 0 1 -1.33,1.15 c 0,0 -0.08,0 -0.15,-0.05 a 1.18,1.18 0 0 1 0.55,-0.91 6.8,6.8 0 0 0 0.73,-0.57 0.6,0.6 0 0 0 0.08,-0.79 c -0.22,-0.3 -0.47,-0.19 -0.7,0 -0.23,0.19 -0.54,0.39 -0.81,0.58 -0.27,0.19 -0.28,0.14 -0.42,0.21 a 3.59,3.59 0 0 1 0.42,-1 0.83,0.83 0 0 0 -0.06,-1 2.38,2.38 0 0 0 -1,-0.82 3.12,3.12 0 0 1 -1.84,-1.72 c -0.24,-0.57 -0.56,-1.11 -0.79,-1.68 -0.64,-1.56 -1.28,-3.12 -1.86,-4.7 a 42.66,42.66 0 0 1 -1.41,-6.81 39.32,39.32 0 0 1 -0.5,-7.28 c 0,-2.46 0,-4.92 0.07,-7.38 a 0.66,0.66 0 0 1 0,-0.14 l 0.1,-0.48 h 5.49 l 0.1,-1.16 h 7.53 c 0.15,-0.87 0.11,-15.34 -0.05,-15.88 h -14 L 31,42.87 H 16.43 c 0.19,-0.39 0.33,-0.69 0.48,-1 a 3.82,3.82 0 0 0 0,-3.57 C 16.34,37.17 15.72,36.07 15.2,34.92 a 17.33,17.33 0 0 1 -1.62,-8.19 14,14 0 0 1 0.72,-4 14.38,14.38 0 0 1 2.62,-4.89 A 6.8,6.8 0 0 1 21,15.46 16.82,16.82 0 0 1 26,15 c 0.7,0.1 1.42,0.06 2.12,0.17 a 23.87,23.87 0 0 1 8.81,3.21 19,19 0 0 1 3.79,3 5.46,5.46 0 0 1 1.54,3.78 44.6,44.6 0 0 1 -0.51,5.41 8.2,8.2 0 0 0 0.23,3.81 c 0.16,0.42 0.28,0.85 0.4,1.27 0.12,0.42 0.1,0.62 -0.32,0.89 A 9.53,9.53 0 0 1 41,37 a 1.08,1.08 0 0 0 -0.74,0.86 5.89,5.89 0 0 1 -1.62,3.35 3.34,3.34 0 0 1 -2.79,1.29 c -0.6,0 -1.19,-0.08 -1.79,-0.12 a 3.73,3.73 0 0 0 -2.31,0.45 H 46.1 c 0,-0.18 0,-0.31 0,-0.44 q 0,-13.87 0,-27.75 c 0,0 0,0 0,-0.06 H 46.05 9.43 C 9.27,15.35 9.31,42.39 9.48,42.93 h 6.68 L 16.25,44 H 25 c 1,0 1.91,0 2.87,0 h 2.91 a 4.31,4.31 0 0 0 -0.09,1 7.65,7.65 0 0 0 1.18,3.14 c 0.66,1 1.32,2 1.89,3.05 a 55.78,55.78 0 0 1 2.92,6.84 c 0.22,0.58 0.4,1.16 0.6,1.76 H 31.9 c 0,-0.86 0,-1.63 -0.14,-2.4 A 30.52,30.52 0 0 0 31.18,53.46 12.41,12.41 0 0 0 29.32,49.58 10.73,10.73 0 0 0 28.18,48.29 0.53,0.53 0 0 0 27.41,48.2 c -0.25,0.22 -0.17,0.49 0,0.72 0.32,0.48 0.64,1 1,1.41 a 11.56,11.56 0 0 1 1.78,3.1 13.27,13.27 0 0 1 0.47,6.37 h -0.71 c -1.82,0 -3.64,-0.06 -5.46,-0.07 h -6.27 c -0.25,0 -0.49,0 -0.73,0 z m 20.93,51.43 c -0.4,0 -0.77,-0.09 -1.15,-0.1 l -7.44,-0.15 c -2.13,0 -4.25,-0.06 -6.38,-0.08 h -0.13 a 2.81,2.81 0 0 1 -0.39,-0.1 8.54,8.54 0 0 1 3.06,-1.76 9.58,9.58 0 0 0 1,-0.4 3.15,3.15 0 0 0 0.79,-0.48 c 1,-1 2,-1.92 3.05,-2.87 1.05,-0.95 2,-1.84 3,-2.76 1,-0.92 2.15,-2 3.24,-3.06 a 0.75,0.75 0 0 0 0.24,-0.83 c -0.2,-0.75 -0.42,-1.49 -0.64,-2.23 a 2.48,2.48 0 0 0 -0.24,-0.44 l -15.2,14.14 0.21,0.62 c -0.56,0.28 -0.12,0.85 -0.45,1.28 h -2 c -0.15,1.32 -0.09,20.35 0.07,20.87 h 2 c 0.7,0 1.4,0 2.11,0 l 0.08,1.28 c 3.3,0 6.53,0 9.76,0.11 a 1,1 0 0 1 0,0.26 26.19,26.19 0 0 0 -1.2,7.71 37.09,37.09 0 0 0 0.68,8.79 7.59,7.59 0 0 0 1.75,3.81 c 1,1.15 2.13,2.26 3.2,3.38 a 4.13,4.13 0 0 0 0.49,0.32 c 0.46,0.36 1.05,0.53 1.42,1 a 2.54,2.54 0 0 0 1.31,0.87 7,7 0 0 1 1.47,0.74 0.67,0.67 0 0 1 0,1.23 3.56,3.56 0 0 1 -1.22,0.47 c -1.42,0.24 -2.84,0.45 -4.27,0.65 a 3.86,3.86 0 0 1 -3,-0.64 4,4 0 0 0 -2.08,-0.82 19.21,19.21 0 0 1 -3.74,-0.89 19.1,19.1 0 0 0 -2.59,-0.61 1.24,1.24 0 0 1 -1.19,-1 4.09,4.09 0 0 1 -0.06,-1.05 7.82,7.82 0 0 1 0.28,-1.36 11.73,11.73 0 0 0 0.46,-3.48 c 0,-0.44 -0.08,-0.88 -0.09,-1.32 -0.07,-2.39 -0.38,-4.76 -0.65,-7.13 -0.2,-1.64 -0.4,-3.29 -0.57,-4.94 a 43.18,43.18 0 0 1 -0.24,-5.57 c 0,-0.15 0,-0.3 0,-0.43 a 75.35,75.35 0 0 0 -8,0 v 33.11 c 0.78,0.14 34.27,0.11 34.75,0 0.11,-1 0.07,-32.44 -0.06,-32.93 -0.41,0 -0.83,-0.12 -1.24,-0.12 L 33.72,134.19 H 33 l -0.08,-1 a 12.66,12.66 0 0 1 -2.36,-0.23 c 0.38,-0.6 0.74,-1.16 1.08,-1.73 a 5.37,5.37 0 0 0 0.66,-1.22 12.54,12.54 0 0 0 0.4,-5.01 7.11,7.11 0 0 1 -0.12,-1.58 46.14,46.14 0 0 1 1.31,-6.42 c 0.06,-0.24 0.12,-0.53 0.46,-0.59 a 1.84,1.84 0 0 1 0.46,1.08 c 0.33,2.12 0.65,4.24 1,6.36 a 5.59,5.59 0 0 1 -0.37,2.86 9.5,9.5 0 0 0 -0.46,1.46 13.23,13.23 0 0 1 -1.71,4.5 2.59,2.59 0 0 0 -0.18,0.4 H 48.16 V 112.25 H 34.53 Z m 17.24,-35.94 -11,-1.17 c 0.34,2.23 0.73,4.36 1,6.51 0.27,2.15 0.38,4.34 0.56,6.5 0.93,0.13 9,0.09 9.47,0 z m -1,-3.39 V 61.13 H 37.78 a 94.43,94.43 0 0 1 2.36,10.73 z m -35.12,1 c 0,0.06 -0.07,0.1 -0.07,0.14 v 13.5 a 4.57,4.57 0 0 0 0.05,0.52 c 0,0 0,0 0,0.06 l 0.1,0.08 h 1.94 A 0.65,0.65 0 0 0 18.16,86.81 4.07,4.07 0 0 1 18.8,86 c 0.53,-0.46 0.54,-0.44 0.29,-1.09 0,-0.1 -0.08,-0.21 -0.13,-0.31 a 1.34,1.34 0 0 1 0.16,-1.49 2.93,2.93 0 0 0 0.66,-1.64 10.33,10.33 0 0 0 -0.16,-3 q -0.61,-2.31 -1.26,-4.62 c -0.12,-0.42 -0.31,-0.82 -0.48,-1.28 -0.08,0.1 -0.11,0.19 -0.15,0.19 z m 10.03,11.88 a 7,7 0 0 1 -1.9,-0.77 25,25 0 0 0 -2.29,-1.21 1.58,1.58 0 0 0 -1.84,0.33 0.81,0.81 0 0 0 -0.25,1 2.7,2.7 0 0 1 0.15,1.68 3.61,3.61 0 0 0 -0.07,0.73 c 0,0.52 0.14,0.73 0.65,0.86 a 3.51,3.51 0 0 0 0.92,0.06 c 0.44,0 0.88,0 1.32,-0.06 1.25,0 2.49,0 3.73,0 0.47,0 0.95,-0.08 1.52,-0.13 -0.17,-0.47 -0.29,-0.84 -0.44,-1.2 -0.15,-0.36 -0.26,-0.52 -0.36,-0.79 a 44.45,44.45 0 0 1 -2.18,-7.86 c -0.27,-1.45 -0.36,-2.93 -0.49,-4.41 -0.13,-1.48 -0.19,-2.95 -0.3,-4.43 -0.07,-1 -0.14,-2 -0.29,-3 a 5.81,5.81 0 0 0 -0.55,-1.41 0.4,0.4 0 0 0 -0.37,-0.19 c -0.1,0 -0.2,0.22 -0.23,0.35 a 1.81,1.81 0 0 0 0,0.46 8.47,8.47 0 0 1 0.1,1.12 49.74,49.74 0 0 0 0.59,7.67 c 0.22,1.73 0.56,3.44 0.87,5.16 a 21.56,21.56 0 0 0 1.46,5.1 c 0.07,0.26 0.13,0.54 0.25,0.94 z m 5.6,8.52 a 2,2 0 0 0 -0.29,0.18 l -5,4.72 -3.64,3.4 c -1.78,1.66 -3.55,3.33 -5.36,5 a 1.07,1.07 0 0 0 -0.35,1.42 c 0.22,0.48 0.35,1 0.53,1.54 1.32,-1 14.85,-13.68 15.15,-14.19 z m -1.52,-2.35 -1.47,1.36 -2.76,2.59 -4,3.7 -2.87,2.66 -2.76,2.59 c -0.13,0.13 -0.32,0.34 -0.3,0.47 a 9.87,9.87 0 0 0 0.62,2.24 c 5,-4.59 9.85,-9.13 14.75,-13.68 z M 15,100.1 15.18,100.19 27.7,88.52 27.64,88.39 c -1.17,0 -2.34,0 -3.5,0 a 0.93,0.93 0 0 0 -0.51,0.26 c -0.91,0.81 -1.81,1.63 -2.7,2.45 -1.83,1.71 -3.65,3.41 -5.47,5.13 a 1.08,1.08 0 0 0 -0.33,0.62 C 15.07,97.93 15.05,99 15,100.1 Z m 0.33,3.5 14.06,-13.13 -1.17,-1.76 c -0.39,0.38 -0.7,0.7 -1,1 -1.9,1.75 -3.82,3.49 -5.72,5.25 l -6.17,5.75 a 0.75,0.75 0 0 0 -0.25,0.5 c 0.04,0.79 0.15,1.48 0.26,2.39 z M 33.55,99.87 33.36,99.82 24.52,108 a 1,1 0 0 0 0.58,0 c 1,-0.2 1.95,-0.43 2.93,-0.59 a 2.62,2.62 0 0 0 2,-1 c 0,-0.07 0.14,-0.11 0.2,-0.17 l 3.1,-2.91 a 0.76,0.76 0 0 0 0.25,-0.7 c 0,-0.55 0,-1.1 0,-1.65 z m -18.2,-4.32 c 2.63,-2.3 5.19,-4.63 7.66,-7.08 -1.09,-0.07 -2.15,-0.08 -3.2,-0.06 a 0.69,0.69 0 0 0 -0.39,0.21 c -0.57,0.5 -1.11,1 -1.68,1.51 a 3.78,3.78 0 0 0 -1.09,1.56 c -0.4,1.06 -0.78,2.12 -1.15,3.18 a 5.15,5.15 0 0 0 -0.15,0.68 z m 24,2.69 0.73,2.53 c 0.27,-0.22 0.49,-0.39 0.7,-0.58 0.21,-0.19 0.58,-0.54 0.87,-0.81 l 3,-2.86 a 0.86,0.86 0 0 0 0.29,-0.7 c 0,-0.73 0,-1.46 0,-2.19 0,-0.15 0,-0.29 -0.06,-0.55 -1.88,1.78 -3.71,3.46 -5.54,5.16 z m 1.44,6.13 c 0.17,-0.14 0.28,-0.21 0.38,-0.3 l 3.58,-3.36 a 0.82,0.82 0 0 0 0.23,-0.66 c 0,-0.86 0,-1.73 0,-2.59 A 3.85,3.85 0 0 0 44.9,96.99 c -1.51,1.39 -3,2.72 -4.4,4.06 a 0.64,0.64 0 0 0 -0.17,0.47 c 0.11,0.91 0.27,1.82 0.45,2.85 z m 0,4.63 1.13,-1 c 0.9,-0.84 1.8,-1.69 2.72,-2.53 a 0.91,0.91 0 0 0 0.31,-0.76 c 0,-1 0,-1.91 0,-2.86 0,-0.14 0,-0.28 -0.06,-0.54 -1.19,1.1 -2.27,2.14 -3.4,3.12 a 1.4,1.4 0 0 0 -0.59,1.57 1.2,1.2 0 0 1 0,0.33 c -0.03,0.88 -0.06,1.73 -0.09,2.67 z M 12,94.58 h 0.16 c 0.69,-0.65 1.35,-1.33 2.07,-1.95 a 8.2,8.2 0 0 0 2.07,-2.47 c 0.35,-0.67 0.72,-1.34 1,-2.12 -0.28,0 -0.46,0 -0.63,0 a 1.44,1.44 0 0 0 -1.25,0.44 c -1.07,1 -2.17,2 -3.25,3 a 0.67,0.67 0 0 0 -0.2,0.39 C 12,92.83 12,93.71 12,94.58 Z m 33,11.21 -1.14,1 c -0.92,0.87 -1.8,1.77 -2.77,2.58 a 2.13,2.13 0 0 0 -0.75,1.68 c 0.56,0 1.09,0 1.62,0 a 1.13,1.13 0 0 0 0.89,-0.35 c 0.63,-0.59 1.26,-1.19 1.87,-1.79 a 0.84,0.84 0 0 0 0.27,-0.43 C 45,107.64 45,106.79 45,105.79 Z m 0.42,-32.71 c 0,0.31 0.24,0.38 0.48,0.4 2,0.18 4.09,0.36 6.13,0.56 a 0.76,0.76 0 0 0 0.6,-0.16 c 0.63,-0.47 1.26,-0.91 1.89,-1.36 0.13,-0.1 0.24,-0.21 0.36,-0.32 v -0.14 h -3 l -0.11,0.88 c -2.19,0.11 -4.29,-0.1 -6.39,0.14 z M 15,92.76 a 4.57,4.57 0 0 0 -0.48,0.35 17.62,17.62 0 0 1 -1.52,1.44 2.28,2.28 0 0 0 -1,2.33 16.16,16.16 0 0 1 0,1.85 1.91,1.91 0 0 0 0.3,-0.21 c 0.6,-0.55 1.22,-1.08 1.79,-1.66 a 1.35,1.35 0 0 0 0.33,-0.69 C 14.67,95.07 14.84,94 15,92.76 Z M 46.48,111 H 49 a 1,1 0 0 0 0.36,-0.15 l 2.43,-1.37 a 2.3,2.3 0 0 0 0.36,-0.32 L 46.48,109 Z m -34,-1.18 c 0.9,-0.82 1.78,-1.62 2.64,-2.44 a 0.37,0.37 0 0 0 0.08,-0.35 c -0.22,-0.66 -0.47,-1.31 -0.73,-2 l -1.66,1.5 c -0.8,0.72 -0.8,0.72 -0.8,1.81 0,0.2 0,0.4 0,0.6 a 1,1 0 0 0 0.5,0.92 z m 1.81,-12.39 -0.12,-0.06 c -0.67,0.63 -1.35,1.25 -2,1.91 a 0.82,0.82 0 0 0 -0.15,0.54 c 0,0.67 0,1.33 0,2 V 103 a 15.36,15.36 0 0 0 1.89,-1.64 0.65,0.65 0 0 0 0.16,-0.41 c 0.1,-1.19 0.17,-2.34 0.25,-3.48 z M 30,107.14 a 8,8 0 0 0 3.33,-0.09 1.13,1.13 0 0 0 0.93,-0.93 5.92,5.92 0 0 0 -0.62,-2.35 z m -18,-0.65 h 0.15 c 0.68,-0.63 1.37,-1.24 2,-1.88 a 0.69,0.69 0 0 0 0.09,-0.48 c -0.05,-0.45 -0.14,-0.91 -0.2,-1.36 0,-0.27 0,-0.54 -0.07,-0.92 -0.68,0.63 -1.26,1.16 -1.83,1.71 a 0.49,0.49 0 0 0 -0.16,0.33 c 0.02,0.9 0.02,1.75 0.02,2.6 z m 4.46,3.45 -1,-2.17 -2.69,2.51 a 0.58,0.58 0 0 0 0.62,0.48 11,11 0 0 1 1.52,0 1.46,1.46 0 0 0 1.59,-0.82 z M 12,90.89 l 0.16,0.1 2.92,-2.78 a 12.87,12.87 0 0 0 -2.21,-0.12 0.86,0.86 0 0 0 -0.86,0.88 C 12,89.61 12,90.25 12,90.89 Z M 37.7,111 c 0,-0.39 0,-0.69 -0.38,-0.85 a 3.58,3.58 0 0 1 -0.93,-0.49 1.56,1.56 0 0 0 -1.07,-0.32 L 34.66,111 Z m 7.23,-1.69 A 13.94,13.94 0 0 0 43.26,111 h 1.67 z M 18.68,88.52 c -0.58,-0.12 -0.57,0.33 -0.67,0.67 z"
         id="path169"
         style="fill:#0d7881;fill-opacity:1" />
      <path
         class="cls-2"
         d="m 87.27,13.41 h 0.2 l 20,-0.08 h 0.82 v 156.51 c -1.18,0 -2.37,0 -3.56,0 h -18 v 2.81 l 0.93,0.13 c 0.74,0.11 1,0.53 0.71,1.23 a 2.56,2.56 0 0 1 -0.11,0.24 c -0.27,0.73 -0.09,1 0.71,0.92 h 0.86 a 3.56,3.56 0 0 1 -0.13,0.64 q -1.64,3.78 -3.28,7.56 a 4.23,4.23 0 0 1 -0.24,0.4 1.26,1.26 0 0 1 -0.65,-0.82 q -1,-2.34 -1.89,-4.68 c -0.28,-0.7 -0.53,-1.42 -0.79,-2.12 -0.33,-0.87 -0.24,-1 0.71,-1 h 0.46 a 0.65,0.65 0 0 0 0.19,-0.09 1.56,1.56 0 0 0 -0.21,-1 c -0.3,-0.69 -0.08,-1.09 0.67,-1.21 l 0.68,-0.11 c 0,-0.91 0,-1.83 0,-2.82 H 64.93 c 0,-0.35 0,-0.63 0,-0.91 v -34.13 q 0,-21.27 0,-42.54 L 64.81,14.4 v -1 c 0.24,0 0.41,0 0.58,0 H 86 v 0 l -0.1,1.33 H 69 c -0.92,0 -1.85,0 -2.82,0 v 0.89 q 0,10 0,20.09 c 0,2.65 0.06,5.31 0.09,8 0,0.15 0.05,0.29 0.07,0.45 a 3.82,3.82 0 0 0 0.43,0 H 77.5 a 3,3 0 0 0 0.51,-0.08 v 0 c -0.09,0.48 -0.19,1 -0.28,1.43 H 66.31 c -0.15,0.76 -0.13,14.71 0,15.2 0.9,0.14 8.61,0.09 9.09,-0.06 a 3.16,3.16 0 0 0 0,-0.32 38.71,38.71 0 0 1 0.32,-5.49 c 0.12,-1.21 0.39,-2.4 0.57,-3.6 a 49.05,49.05 0 0 1 1.37,-5.75 h 6.06 c 0.67,0 1.35,0 2.09,0 l -0.13,2.23 h -0.45 a 3.73,3.73 0 0 0 -0.46,0 c -0.4,0 -0.52,0.26 -0.36,0.62 a 1.78,1.78 0 0 0 0.84,0.83 0.87,0.87 0 0 1 0.45,0.87 q 0,5 0,10 c 0,0.21 0,0.43 0,0.71 H 75.54 v 1.32 h -1.59 l -7.31,0.1 a 3.24,3.24 0 0 0 -0.4,0.06 v 11 c 3.7,-0.06 7.36,0.16 11.07,0 0,-0.33 -0.07,-0.57 -0.11,-0.8 -0.39,-2.36 -0.8,-4.71 -1.19,-7.07 -0.18,-1.11 -0.33,-2.23 -0.49,-3.34 0.35,0 0.7,0 1.06,0 1.21,0 1.25,0 1.62,1.18 v 0.13 a 24.57,24.57 0 0 1 0.64,5.19 c 0,1.33 0,2.66 0,4 v 0.74 h -1.43 v 1.25 H 66.3 a 1.13,1.13 0 0 0 -0.07,0.26 q 0,6.75 0,13.5 a 1.17,1.17 0 0 0 0,0.26 c 0,0 0,0 0,0 l 0.08,0.08 h 11.12 l -0.32,1.31 h 4.4 c 0.41,1.25 0.76,2.45 1.2,3.6 0.68,1.73 1.4,3.45 2.14,5.16 a 6.87,6.87 0 0 1 0.75,3.39 c -0.06,0.68 0,1.38 0,2.06 v 0.7 L 84.71,105 a 5.52,5.52 0 0 0 -3.11,1.68 c -0.58,0.66 -1.06,1.41 -1.59,2.12 l -0.36,0.43 a 2.46,2.46 0 0 0 -0.16,-0.3 31.09,31.09 0 0 1 -2.85,-4.56 6.17,6.17 0 0 1 -0.43,-1.18 16.12,16.12 0 0 1 -0.33,-5.62 45.22,45.22 0 0 1 1.05,-6.57 c 0.06,-0.26 0.08,-0.52 0.12,-0.77 -0.64,-0.16 -10.28,-0.15 -10.76,0 v 21.73 h 14.94 a 4.05,4.05 0 0 0 -0.76,-1.56 7.48,7.48 0 0 1 5.07,-4.17 V 112 h -4.17 l 0.2,1.26 h -0.4 -14.3 a 4.06,4.06 0 0 0 -0.51,0 0.62,0.62 0 0 0 -0.08,0.21 q 0,10 0,20 c 0,0.13 0,0.26 0,0.39 v 0 l 0.08,0.09 h 14.01 c 0.26,0 0.53,0 0.79,0 L 81,135.28 c 1.54,0.09 3,0 4.53,0.08 0,0.57 -0.09,1.08 -0.1,1.58 l -0.09,26.22 v 2.53 c 0,0.22 0,0.44 0,0.7 -0.85,0.06 -1.67,0.08 -2.47,0.19 a 2.44,2.44 0 0 1 -1.69,-0.4 1.46,1.46 0 0 1 -0.73,-1.33 5.37,5.37 0 0 1 0.25,-1.43 12.08,12.08 0 0 0 0.88,-2.49 c 0.07,-0.73 0.18,-1.45 0.25,-2.18 a 13.15,13.15 0 0 0 -0.18,-4 c -0.4,-2.11 -0.8,-4.22 -1.14,-6.34 -0.21,-1.35 -0.32,-2.72 -0.45,-4.08 -0.1,-0.9 -0.17,-1.81 -0.23,-2.71 a 13.67,13.67 0 0 1 0.81,-5.15 c 0.12,-0.36 0.21,-0.72 0.33,-1.13 H 66.28 v 0.8 c 0,2.9 0.08,5.81 0.08,8.71 q 0,11.46 0,22.9 v 0.84 h 19 l 0.06,1.1 h 1.23 l 0.06,-1.11 h 17.7 c 0.84,0 1.67,0 2.5,0 v -33.2 H 90.08 c 0,0.16 -0.1,0.28 -0.13,0.41 -0.2,1.07 -0.43,2.13 -0.58,3.2 -0.19,1.33 -0.35,2.67 -0.47,4 -0.12,1.33 -0.17,2.42 -0.23,3.64 0,0.73 -0.08,1.46 -0.07,2.19 0,1.75 0.08,3.5 0.14,5.25 0,1 0.05,2 0.16,3 a 5.32,5.32 0 0 0 2,3.64 23.58,23.58 0 0 0 5.1,3.23 13.81,13.81 0 0 0 4.72,1.29 c 0.39,0 0.58,0.22 0.58,0.58 0,0.36 -0.26,0.51 -0.65,0.52 l -1.88,0.09 a 1.52,1.52 0 0 0 -0.5,0.15 1.41,1.41 0 0 1 -1.22,0.08 0.85,0.85 0 0 0 -0.76,0.06 1.64,1.64 0 0 1 -1.34,0.1 2,2 0 0 0 -1,-0.08 9.45,9.45 0 0 1 -3.09,0.16 c -0.88,-0.12 -1.75,-0.3 -2.62,-0.43 -0.48,-0.07 -1,-0.11 -1.5,-0.17 v -0.76 c 0,-2.64 0.06,-5.28 0.06,-7.91 0,-6.86 0,-13.72 0,-20.58 0,-0.56 0.07,-1.12 0.12,-1.75 H 90 l 0.36,-1.28 h -3.45 v -19.28 l 2.06,0.79 a 1.12,1.12 0 0 0 1.4,-0.44 10.37,10.37 0 0 0 0.63,-0.85 c 0.2,-0.32 0.37,-0.65 0.59,-1 h 4.52 l 0.23,-1.15 c -1.46,-0.09 -2.86,0 -4.23,-0.07 0.16,-1.32 0.4,-2.57 0.44,-3.82 0.04,-1.25 -0.11,-2.49 -0.18,-3.72 1.95,-0.42 4.17,-0.49 4.91,0.13 0.09,2.47 -0.54,4.88 -0.81,7.37 h 10.45 c 0.13,-0.79 0.1,-21.27 0,-21.79 h -10 c 0.16,2.14 0.33,4.23 0.45,6.32 a 45.67,45.67 0 0 1 0.09,6.42 16.39,16.39 0 0 0 -5.28,0.22 c -0.66,-4.36 -1.31,-8.66 -2,-13 h 6.59 l -0.08,-1.31 v 0 h 10.21 c 0.14,-1.08 0.09,-13.57 -0.06,-14.09 h -8.13 c -0.27,0 -0.53,0 -0.8,0 v 0 l 0.2,-1.28 c -3.24,0 -6.37,0 -9.54,0 0.1,-3.8 0.55,-7.47 0.86,-11.22 h 8.62 c -0.17,-0.53 -0.32,-1 -0.46,-1.4 a 3,3 0 0 0 0.51,0.08 h 8.32 a 4,4 0 0 0 0.5,-0.06 c 0.13,-1 0.08,-14.64 -0.07,-15.18 -5.7,0.1 -11.42,-0.18 -17.21,0 0.09,0.22 0.13,0.34 0.19,0.45 q 1.68,3 3.37,5.89 c 0.75,1.28 1.6,2.51 2.27,3.83 0.77,1.5 1.39,3.07 2.06,4.61 a 1.56,1.56 0 0 1 0.07,0.44 3.75,3.75 0 0 1 -0.57,0.09 H 90 89.46 a 1.56,1.56 0 0 1 0,-0.35 A 42.4,42.4 0 0 0 89.23,56 20.68,20.68 0 0 0 88.41,51.44 4.53,4.53 0 0 0 87.69,49.96 2.18,2.18 0 0 1 87.09,48 c 0,-0.17 0,-0.35 0,-0.53 0,-0.66 0.08,-1.31 0.12,-2 h 2.35 L 89,44.07 h -1.84 v -1 q 0.06,-12.7 0.1,-25.42 v -1.01 c 0,-0.17 0,-0.34 0.06,-0.55 0.63,0.09 1.22,0.14 1.81,0.24 a 20.87,20.87 0 0 1 5.32,1.39 10.87,10.87 0 0 1 3,2.05 7.14,7.14 0 0 1 1.8,2.84 4.37,4.37 0 0 1 0.27,1.29 27.33,27.33 0 0 1 -0.34,4.42 8.59,8.59 0 0 0 1,5.79 0.66,0.66 0 0 1 -0.15,1 2.73,2.73 0 0 1 -0.47,0.37 1.33,1.33 0 0 0 -0.75,1.36 6.17,6.17 0 0 1 -0.7,2.68 A 2.29,2.29 0 0 1 96,41 c -0.81,0 -1.63,0 -2.45,0 L 90.7,40.88 a 1.31,1.31 0 0 0 -1.17,0.51 3.41,3.41 0 0 0 -0.38,2.72 c 6,-0.11 11.88,0.15 17.82,0 V 14.64 H 88.12 c -0.28,0 -0.56,0 -0.83,0 v -1.25 z m 8.91,99.88 c -0.07,0.31 -0.14,0.61 -0.22,0.91 -0.26,1 -0.48,2.07 -0.8,3.08 -0.63,2 -1.3,4 -2,5.93 a 11,11 0 0 0 -0.72,3.09 c 0,0.56 0,1.12 -0.07,1.66 a 15.8,15.8 0 0 1 -1.05,3.76 c -0.29,0.71 -0.53,1.44 -0.82,2.23 H 107 v -20.66 z m 10.78,-40 V 62.24 a 81.57,81.57 0 0 0 -8.74,0 36.1,36.1 0 0 1 0,11 z m -21.1,102.45 v 0 l -0.8,-0.06 c -0.5,0 -0.83,0.24 -0.78,0.74 a 4.27,4.27 0 0 0 0.32,1.2 0.26,0.26 0 0 0 0.48,0.05 0.85,0.85 0 0 0 0.14,-0.54 c 0,-0.54 0,-0.58 0.59,-0.53 a 4.1,4.1 0 0 0 1,0 c 0.23,0 0.51,-0.15 0.48,-0.45 a 0.47,0.47 0 0 0 -0.56,-0.43 c -0.3,0.04 -0.59,0.02 -0.87,0.02 z"
         id="path171"
         style="fill:#0d7881;fill-opacity:1" />
      <path
         class="cls-2"
         d="m 86,13.41 c 0,-0.26 -0.07,-0.53 -0.07,-0.79 q 0,-5.8 0,-11.63 c 0,-0.11 0,-0.22 0,-0.33 0,-0.43 0.21,-0.63 0.59,-0.66 a 0.67,0.67 0 0 1 0.76,0.58 3,3 0 0 1 0,0.6 v 11.43 c 0,0.27 0,0.53 0,0.8 v 0 h -1.34 z"
         id="path173"
         style="fill:#0d7881;fill-opacity:1" />
      <path
         class="cls-2"
         d="m 17.36,111.93 c 0.66,0 1.23,0 1.81,0 0.75,0 1.5,0 2.26,0.06 l 6.77,0.08 c 1.51,0 3,0.06 4.52,0.1 0.46,0 0.92,0.06 1.46,0.1 -0.09,0.37 -0.15,0.71 -0.25,1 -0.5,1.74 -1,3.49 -1.53,5.23 a 9.82,9.82 0 0 0 -0.45,2.8 c 0,0.86 -0.08,1.73 -0.08,2.59 0,0.68 0.07,1.37 0.07,2 a 13.65,13.65 0 0 1 -0.1,1.92 4.36,4.36 0 0 1 -0.38,1.26 c -0.53,1.17 -1.11,2.31 -1.63,3.49 a 0.63,0.63 0 0 1 -0.7,0.44 l -4.84,-0.15 c -0.54,0 -1.07,0 -1.6,0 l -3.27,-0.08 c 0.12,-0.48 0.21,-0.9 0.33,-1.32 0.26,-0.87 0.57,-1.72 0.78,-2.61 a 5.15,5.15 0 0 0 0.1,-2.73 c -0.44,-1.56 -0.81,-3.14 -1.14,-4.72 -0.21,-1 -0.3,-2 -0.46,-3.08 a 47.54,47.54 0 0 0 -1.59,-6.1 z"
         id="path175"
         style="fill:#0d7881;fill-opacity:1" />
      <path
         class="cls-2"
         d="m 38.41,157.43 a 3.62,3.62 0 0 1 -0.93,0.45 11.84,11.84 0 0 1 -2,0.19 1.77,1.77 0 0 1 -1.29,-0.58 37.28,37.28 0 0 1 -3.64,-4.2 c -0.27,-0.37 -0.49,-0.76 -0.74,-1.14 L 30,152 a 5.5,5.5 0 0 1 0.57,0.36 19.72,19.72 0 0 0 5,2.73 11,11 0 0 1 2.25,1.27 1.36,1.36 0 0 1 0.59,1.07 z"
         id="path177"
         style="fill:#0d7881;fill-opacity:1" />
      <path
         class="cls-2"
         d="m 30.15,134.24 h 2.05 a 2.34,2.34 0 0 1 -0.11,0.28 30.76,30.76 0 0 0 -2.55,4.77 c 0,0 -0.08,0 -0.2,0.08 a 2.1,2.1 0 0 1 -0.12,-0.54 29,29 0 0 1 0.93,-4.59 z"
         id="path179"
         style="fill:#0d7881;fill-opacity:1" />
      <path
         class="cls-2"
         d="m 18.93,155.14 a 2.28,2.28 0 0 1 0.35,-1.27 4.46,4.46 0 0 0 0.27,-0.67 c 0.08,-0.2 0.11,-0.46 0.4,-0.44 0.29,0.02 0.3,0.26 0.34,0.48 a 1.88,1.88 0 0 1 -0.05,0.91 8.1,8.1 0 0 0 -0.18,1.23 A 2.25,2.25 0 0 1 20,156 c -0.06,0.16 -0.27,0.39 -0.39,0.38 a 0.71,0.71 0 0 1 -0.48,-0.36 3.87,3.87 0 0 1 -0.2,-0.88 z"
         id="path181"
         style="fill:#0d7881;fill-opacity:1" />
      <path
         class="cls-2"
         d="m 78,44.08 a 11.31,11.31 0 0 0 0.43,-1.15 c 0.21,-0.81 0.39,-1.63 0.53,-2.46 a 2.28,2.28 0 0 0 -0.45,-1.94 c -1,-1.15 -1.92,-2.32 -2.89,-3.46 a 12.66,12.66 0 0 1 -2.43,-3.86 9.15,9.15 0 0 1 -0.46,-2.27 13.16,13.16 0 0 1 0.05,-2.51 12.13,12.13 0 0 1 1.77,-5 13.37,13.37 0 0 1 2.64,-3.32 7.31,7.31 0 0 1 3.63,-1.83 18.17,18.17 0 0 1 2.42,-0.38 c 0.83,0 1.67,0.05 2.56,0.08 a 3.07,3.07 0 0 1 0.06,0.51 c 0,2.55 0,5.1 0,7.65 0,1.24 0,2.48 -0.07,3.72 0,0.35 0,0.57 -0.46,0.65 a 3.21,3.21 0 0 0 -2.24,2.83 9,9 0 0 0 0,1.27 4.83,4.83 0 0 0 1.71,3.33 c 0.32,0.27 0.77,0.49 0.92,0.83 a 3.34,3.34 0 0 1 0.07,1.31 v 6 a 2.9,2.9 0 0 1 -0.38,0.07 l -6.85,0.07 a 3.11,3.11 0 0 1 -0.58,-0.11 z"
         id="path183"
         style="fill:#0d7881;fill-opacity:1" />
      <path
         class="cls-2"
         d="m 87.05,90.11 h 2.27 c 0.17,0.93 0.32,1.84 0.5,2.75 0.57,2.93 1,5.89 1.3,8.86 0.18,1.58 0.25,3.17 0.43,4.75 a 21.79,21.79 0 0 1 -0.1,4 c 0,0.09 0,0.18 0,0.26 C 91.23,112 91.23,112 89.95,112 H 88 a 4.81,4.81 0 0 0 -0.89,-3.69 1.49,1.49 0 0 1 -0.2,-0.68 q 0,-7.78 0,-15.57 c 0.02,-0.6 0.09,-1.24 0.14,-1.95 z"
         id="path185"
         style="fill:#0d7881;fill-opacity:1" />
      <path
         class="cls-2"
         d="m 81.14,134.05 c 0.1,-1.07 0.25,-2.14 0.31,-3.22 0.21,-3.86 0.21,-7.73 0.18,-11.6 0,-2 -0.06,-4 -0.09,-6 h 4 V 134 Z"
         id="path187"
         style="fill:#0d7881;fill-opacity:1" />
      <path
         class="cls-2"
         d="m 97.91,74.62 c -0.18,1.14 -0.36,2.27 -0.53,3.4 -0.29,2 -0.57,4.07 -0.85,6.11 a 68.94,68.94 0 0 1 -7.24,0.05 c -0.53,-1.52 -1,-8.48 -0.62,-9.53 h 9.26 z"
         id="path189"
         style="fill:#0d7881;fill-opacity:1" />
      <path
         class="cls-2"
         d="m 80.1,74.61 h 5.43 c 0.14,0.49 0.19,13.2 0,14.13 h -3.5 C 81.8,88.03 81.55,87.31 81.33,86.57 A 25.45,25.45 0 0 1 80.57,82.06 C 80.39,80.44 80.19,78.82 80.06,77.19 80,76.36 80.1,75.52 80.1,74.61 Z"
         id="path191"
         style="fill:#0d7881;fill-opacity:1" />
      <path
         class="cls-2"
         d="M 85.56,73.32 H 80 c -0.11,-3.74 0,-7.46 -0.92,-11.13 h 6.53 C 85.8,63 85.73,72.54 85.56,73.32 Z"
         id="path193"
         style="fill:#0d7881;fill-opacity:1" />
      <path
         class="cls-2"
         d="M 96.73,88.76 H 90 l -0.59,-3.5 h 7.19 c 0.06,1.19 0.11,2.35 0.17,3.52 z"
         id="path195"
         style="fill:#0d7881;fill-opacity:1" />
      <path
         class="cls-2"
         d="m 87.07,74.61 h 0.51 c 0,0.08 0.08,0.14 0.08,0.2 l -0.09,2 a 33.28,33.28 0 0 0 0.68,7.11 c 0.24,1.41 0.49,2.83 0.73,4.24 a 4.73,4.73 0 0 1 0,0.52 4.7,4.7 0 0 1 -2,0.06 z"
         id="path197"
         style="fill:#0d7881;fill-opacity:1" />
      <path
         class="cls-2"
         d="m 77.57,74.62 h 1.26 a 76.65,76.65 0 0 1 0.75,9.57 1.28,1.28 0 0 1 -1.16,0 1.79,1.79 0 0 1 0,-0.51 9.93,9.93 0 0 0 -0.14,-3.22 c -0.18,-1.69 -0.44,-3.37 -0.66,-5 a 6.44,6.44 0 0 1 -0.05,-0.84 z"
         id="path199"
         style="fill:#0d7881;fill-opacity:1" />
      <path
         class="cls-2"
         d="m 87.13,62.19 h 1.42 L 87.66,73.31 H 87 c 0.06,-3.71 0.1,-7.4 0.13,-11.12 z"
         id="path201"
         style="fill:#0d7881;fill-opacity:1" />
      <path
         class="cls-2"
         d="m 85.57,90.15 v 6.66 h -0.14 a 52.36,52.36 0 0 1 -2.81,-6.69 z"
         id="path203"
         style="fill:#0d7881;fill-opacity:1" />
      <path
         class="cls-2"
         d="m 87.32,51.42 a 22.47,22.47 0 0 1 1.24,9.37 h -1.42 v -9.35 z"
         id="path205"
         style="fill:#0d7881;fill-opacity:1" />
      <path
         class="cls-2"
         d="m 77.45,88.78 a 0.87,0.87 0 0 1 0,-0.31 q 0.43,-1.6 0.87,-3.18 a 1.83,1.83 0 0 1 0.23,-0.07 c 1.38,-0.09 1.38,-0.09 1.79,1.23 0.22,0.74 0.47,1.48 0.73,2.3 a 15.42,15.42 0 0 1 -1.79,0 c -0.6,0 -1.2,0 -1.8,0 z"
         id="path207"
         style="fill:#0d7881;fill-opacity:1" />
      <path
         class="cls-2"
         d="m 85.77,34.54 a 1.53,1.53 0 0 1 -1.52,-1.34 8.14,8.14 0 0 1 0,-1.91 c 0.1,-0.72 0.62,-1.1 1.5,-1.22 z"
         id="path209"
         style="fill:#0d7881;fill-opacity:1" />
      <path
         class="cls-2"
         d="m 87.44,113.28 h 3 a 5.1,5.1 0 0 1 -0.49,0.91 0.71,0.71 0 0 1 -0.56,0.25 3.78,3.78 0 0 1 -1.87,-0.94 c 0,0 -0.04,-0.11 -0.08,-0.22 z"
         id="path211"
         style="fill:#0d7881;fill-opacity:1" />
      <g
         class="cls-3"
         id="g215"
         transform="translate(4)"
         style="fill:#0d7881;fill-opacity:1">
        <path
           class="cls-2"
           d="m 102,178.63 a 4.82,4.82 0 0 1 -0.4,2 5,5 0 0 1 -1.08,1.6 4.87,4.87 0 0 1 -1.52,1.05 5,5 0 0 1 -2,0.39 4.76,4.76 0 0 1 -2,-0.4 4.91,4.91 0 0 1 -1.6,-1.08 5.22,5.22 0 0 1 -1.09,-1.6 5,5 0 0 1 0,-3.91 5.17,5.17 0 0 1 2.69,-2.7 5.1,5.1 0 0 1 4,0.02 5.22,5.22 0 0 1 1.6,1.09 5,5 0 0 1 1.08,1.61 4.76,4.76 0 0 1 0.32,1.93 z m -0.74,0 A 4.26,4.26 0 0 0 101,177 a 4.6,4.6 0 0 0 -0.92,-1.36 4.46,4.46 0 0 0 -1.37,-0.92 4.12,4.12 0 0 0 -1.67,-0.34 4.08,4.08 0 0 0 -1.66,0.34 4.34,4.34 0 0 0 -1.37,0.92 4.41,4.41 0 0 0 -0.92,1.36 4.09,4.09 0 0 0 -0.34,1.67 4,4 0 0 0 0.34,1.66 4.46,4.46 0 0 0 0.92,1.37 4.52,4.52 0 0 0 1.37,0.92 4.25,4.25 0 0 0 1.66,0.34 4.3,4.3 0 0 0 1.67,-0.34 4.28,4.28 0 0 0 2.29,-2.29 4.21,4.21 0 0 0 0.3,-1.7 z M 98,181.16 97.21,179 h -1.15 v 2.15 h -1 v -5.32 h 1.78 a 4.64,4.64 0 0 1 0.85,0.07 1.89,1.89 0 0 1 0.69,0.25 1.33,1.33 0 0 1 0.46,0.53 2,2 0 0 1 0.17,0.87 1.75,1.75 0 0 1 -0.01,0.45 1.1,1.1 0 0 1 -0.47,0.6 3.81,3.81 0 0 1 -0.41,0.22 l 1,2.3 z m 0,-3.69 a 0.58,0.58 0 0 0 -0.27,-0.55 1.18,1.18 0 0 0 -0.63,-0.16 h -1.04 v 1.4 h 1.15 A 1,1 0 0 0 97.78,178 0.6,0.6 0 0 0 98,177.47 Z"
           id="path213"
           style="fill:#0d7881;fill-opacity:1" />
      </g>
      <text
         xml:space="preserve"
         id="text338"
         style="font-size:48px;font-family:'Adobe Hebrew';-inkscape-font-specification:'Adobe Hebrew';white-space:pre;shape-inside:url(#rect340);display:inline;fill:#0d7881;fill-opacity:1"
         transform="translate(4)" />
      <text
         xml:space="preserve"
         style="font-size:46.6667px;font-family:'Adobe Hebrew';-inkscape-font-specification:'Adobe Hebrew';fill:#0d7881;fill-opacity:1;stroke-width:1.18673"
         x="130.58017"
         y="94.685303"
         id="text346"><tspan
           sodipodi:role="line"
           id="tspan344"
           x="130.58017"
           y="94.685303"
           style="font-style:normal;font-variant:normal;font-weight:normal;font-stretch:normal;font-size:46.6667px;font-family:Georgia;-inkscape-font-specification:Georgia;fill:#0d7881;fill-opacity:1;stroke-width:1.18673">Гульнора Ситдикова</tspan></text>
      <text
         xml:space="preserve"
         id="text1090"
         style="font-size:11.2353px;font-family:'Adobe Hebrew';-inkscape-font-specification:'Adobe Hebrew';white-space:pre;shape-inside:url(#rect1092);display:inline;fill:#0d7881;fill-opacity:1"
         transform="matrix(1.1867342,0,0,1.1867342,-21.174949,-2.893497)"><tspan
           x="130.78711"
           y="101.33675"
           id="tspan4735"><tspan
             style="font-family:Calibri;-inkscape-font-specification:Calibri"
             id="tspan4733">сертифицированный продвинутый рольфер
</tspan></tspan><tspan
           x="130.78711"
           y="115.63928"
           id="tspan4739"><tspan
             style="font-family:Calibri;-inkscape-font-specification:Calibri"
             id="tspan4737">сертифицированный инструктор рольф-движения
</tspan></tspan><tspan
           x="130.78711"
           y="129.94182"
           id="tspan4743"><tspan
             style="font-family:Calibri;-inkscape-font-specification:Calibri"
             id="tspan4741">телесно-ориентированный психолог </tspan></tspan></text>
      <text
         xml:space="preserve"
         id="text1090-7"
         style="font-size:11.2353px;font-family:'Adobe Hebrew';-inkscape-font-specification:'Adobe Hebrew';white-space:pre;shape-inside:url(#rect1092-1);display:inline;fill:#0d7881;fill-opacity:1"
         transform="matrix(1.1867342,0,0,1.1867342,-20.937114,45.37815)" />
    </g>
  </g>
</svg>
